<svg xmlns="http://www.w3.org/2000/svg" viewBox="0 0 109.23 7.31"><defs><style>.cls-1{fill:#fff;}</style></defs><title>Asset 17</title><g id="Layer_2" data-name="Layer 2"><g id="MT"><path class="cls-1" d="M43.43.61H41v6.6h-.6V.61H38V.1h5.47Z"/><path class="cls-1" d="M48.5,3.8H45.18V6.7H49v.51H44.57V.1H49V.61H45.18V3.29H48.5Z"/><path class="cls-1" d="M55.3,5a2.53,2.53,0,0,1-.81,1.72,2.62,2.62,0,0,1-1.81.6,2.55,2.55,0,0,1-1.4-.4,2.6,2.6,0,0,1-.94-1.12A4.13,4.13,0,0,1,50,4.13V3.21a4.06,4.06,0,0,1,.34-1.68A2.53,2.53,0,0,1,51.29.4a2.86,2.86,0,0,1,3.24.22,2.56,2.56,0,0,1,.77,1.7h-.61a1.8,1.8,0,0,0-2-1.81,1.88,1.88,0,0,0-1.54.72,3.15,3.15,0,0,0-.57,2V4.1a3.15,3.15,0,0,0,.56,2,1.8,1.8,0,0,0,1.51.74,2,2,0,0,0,1.42-.45A2.18,2.18,0,0,0,54.69,5Z"/><path class="cls-1" d="M62,7.21h-.61V3.8H57.36V7.21h-.6V.1h.6V3.29h4.06V.1H62Z"/><path class="cls-1" d="M69.13,7.21h-.61L64.44,1.12V7.21h-.61V.1h.61l4.09,6.09V.1h.6Z"/><path class="cls-1" d="M76.19,4a4.19,4.19,0,0,1-.34,1.72,2.54,2.54,0,0,1-1,1.14,2.65,2.65,0,0,1-1.46.41,2.51,2.51,0,0,1-2-.9A3.55,3.55,0,0,1,70.64,4V3.28A4.06,4.06,0,0,1,71,1.56,2.53,2.53,0,0,1,73.41,0a2.61,2.61,0,0,1,1.45.4,2.57,2.57,0,0,1,1,1.11,4,4,0,0,1,.36,1.68Zm-.6-.77a3.11,3.11,0,0,0-.59-2A1.89,1.89,0,0,0,73.41.53a1.93,1.93,0,0,0-1.58.73,3.16,3.16,0,0,0-.59,2V4a3.13,3.13,0,0,0,.59,2,2.09,2.09,0,0,0,3.18,0,3.15,3.15,0,0,0,.58-2Z"/><path class="cls-1" d="M78.31,6.7h3.51v.51H77.7V.1h.61Z"/><path class="cls-1" d="M87.9,4a4,4,0,0,1-.34,1.72,2.46,2.46,0,0,1-1,1.14,2.65,2.65,0,0,1-1.46.41,2.51,2.51,0,0,1-2-.9A3.55,3.55,0,0,1,82.36,4V3.28a4.06,4.06,0,0,1,.35-1.72,2.65,2.65,0,0,1,1-1.16,2.83,2.83,0,0,1,2.9,0,2.57,2.57,0,0,1,1,1.11,4,4,0,0,1,.35,1.68Zm-.6-.77a3.1,3.1,0,0,0-.58-2,2.09,2.09,0,0,0-3.17,0,3.16,3.16,0,0,0-.59,2V4a3.13,3.13,0,0,0,.59,2,2.09,2.09,0,0,0,3.18,0,3.2,3.2,0,0,0,.57-2Z"/><path class="cls-1" d="M94.55,6.36a2,2,0,0,1-1,.7,4.35,4.35,0,0,1-1.49.25,2.78,2.78,0,0,1-1.49-.41,2.63,2.63,0,0,1-1-1.13,3.77,3.77,0,0,1-.36-1.68v-.9A3.46,3.46,0,0,1,90,.86,2.54,2.54,0,0,1,92,0a2.7,2.7,0,0,1,1.77.56,2.27,2.27,0,0,1,.79,1.54h-.6A1.85,1.85,0,0,0,93.31.91,2.06,2.06,0,0,0,92,.51a1.91,1.91,0,0,0-1.58.71,3.06,3.06,0,0,0-.58,2v.84a3.58,3.58,0,0,0,.27,1.43,2.25,2.25,0,0,0,.79,1,2.18,2.18,0,0,0,1.19.34,3.16,3.16,0,0,0,1.33-.25A1.42,1.42,0,0,0,94,6.18V4.34H92V3.83h2.51Z"/><path class="cls-1" d="M97,7.21h-.6V.1H97Z"/><path class="cls-1" d="M102.84,3.8H99.52V6.7h3.82v.51H98.92V.1h4.39V.61H99.52V3.29h3.32Z"/><path class="cls-1" d="M108.63,5.46a1.16,1.16,0,0,0-.42-.94,4.36,4.36,0,0,0-1.52-.65,5.32,5.32,0,0,1-1.61-.68,1.58,1.58,0,0,1-.72-1.35A1.58,1.58,0,0,1,105,.51,2.77,2.77,0,0,1,106.75,0,2.84,2.84,0,0,1,108,.27a2,2,0,0,1,.87.77,1.92,1.92,0,0,1,.31,1.08h-.61a1.48,1.48,0,0,0-.5-1.17,1.94,1.94,0,0,0-1.33-.44,2.11,2.11,0,0,0-1.3.36,1.16,1.16,0,0,0-.49,1,1.08,1.08,0,0,0,.44.89,3.89,3.89,0,0,0,1.39.6,6.61,6.61,0,0,1,1.45.55,1.94,1.94,0,0,1,.74.67,1.63,1.63,0,0,1,.25.92,1.61,1.61,0,0,1-.67,1.35,2.86,2.86,0,0,1-1.77.51A3.47,3.47,0,0,1,105.41,7a2.08,2.08,0,0,1-1-.76,1.9,1.9,0,0,1-.33-1.1h.61a1.39,1.39,0,0,0,.56,1.18,2.36,2.36,0,0,0,1.49.44,2.16,2.16,0,0,0,1.33-.37A1.14,1.14,0,0,0,108.63,5.46Z"/><path class="cls-1" d="M1.21.1,3.54,5.9,5.86.1H7.08V7.21H6.14V4.44l.09-3L3.89,7.21H3.17L.84,1.46l.1,3V7.21H0V.1Z"/><path class="cls-1" d="M12.74,5.35h-3L9.1,7.21h-1L10.84.1h.83l2.71,7.11h-1Zm-2.69-.77h2.42L11.25,1.25Z"/><path class="cls-1" d="M19.62.86H17.34V7.21h-.93V.86H14.13V.1h5.49Z"/><path class="cls-1" d="M22.7,4a4.5,4.5,0,0,1-1.76-.85,1.63,1.63,0,0,1-.55-1.25A1.72,1.72,0,0,1,21.06.55,2.66,2.66,0,0,1,22.81,0a2.86,2.86,0,0,1,1.3.28,2.13,2.13,0,0,1,.89.78,2,2,0,0,1,.32,1.09h-.94a1.26,1.26,0,0,0-.42-1A1.62,1.62,0,0,0,22.81.77a1.71,1.71,0,0,0-1.08.3,1,1,0,0,0-.39.85.91.91,0,0,0,.37.74A3.62,3.62,0,0,0,23,3.21a5.72,5.72,0,0,1,1.39.55,2.09,2.09,0,0,1,.74.7,1.8,1.8,0,0,1,.24.94,1.63,1.63,0,0,1-.67,1.38,2.85,2.85,0,0,1-1.8.52A3.29,3.29,0,0,1,21.49,7a2.24,2.24,0,0,1-1-.77,1.84,1.84,0,0,1-.34-1.1h.94a1.21,1.21,0,0,0,.47,1,2,2,0,0,0,1.28.38A1.83,1.83,0,0,0,24,6.24a1,1,0,0,0,.4-.83A1,1,0,0,0,24,4.6,4,4,0,0,0,22.7,4Z"/><path class="cls-1" d="M32,3.88a4.49,4.49,0,0,1-.35,1.83,2.65,2.65,0,0,1-1,1.18,2.93,2.93,0,0,1-3,0,2.76,2.76,0,0,1-1-1.17A4.27,4.27,0,0,1,26.28,4V3.43a4.33,4.33,0,0,1,.36-1.81,2.72,2.72,0,0,1,1-1.2A2.68,2.68,0,0,1,29.14,0a2.82,2.82,0,0,1,1.51.41,2.7,2.7,0,0,1,1,1.2A4.48,4.48,0,0,1,32,3.43Zm-.93-.46a3.18,3.18,0,0,0-.51-1.94,1.82,1.82,0,0,0-2.82,0,3.13,3.13,0,0,0-.52,1.88v.52a3.23,3.23,0,0,0,.51,1.93,1.81,1.81,0,0,0,2.83,0A3.21,3.21,0,0,0,31.07,4Z"/><path class="cls-1" d="M38.87,7.21h-.94L34.35,1.73V7.21h-.94V.1h.94l3.59,5.5V.1h.93Z"/></g></g></svg>