<svg xmlns="http://www.w3.org/2000/svg" viewBox="0 0 108.91 7.31"><defs><style>.cls-1{fill:#2f363c;}.cls-2{fill:#25c0d6;}</style></defs><title>Asset 18</title><g id="Layer_2" data-name="Layer 2"><g id="MT"><path class="cls-1" d="M43.1.61H40.67v6.6h-.6V.61H37.64V.1H43.1Z"/><path class="cls-1" d="M48.18,3.8H44.85V6.7h3.83v.51H44.25V.1h4.4V.61h-3.8V3.29h3.33Z"/><path class="cls-1" d="M55,5a2.57,2.57,0,0,1-.81,1.72,2.64,2.64,0,0,1-1.81.6A2.49,2.49,0,0,1,50,5.79a4.13,4.13,0,0,1-.34-1.66V3.21A4.06,4.06,0,0,1,50,1.53a2.74,2.74,0,0,1,4.2-.91A2.6,2.6,0,0,1,55,2.32h-.61a1.81,1.81,0,0,0-2-1.81,1.87,1.87,0,0,0-1.54.72,3.15,3.15,0,0,0-.57,2V4.1a3.09,3.09,0,0,0,.56,2,1.79,1.79,0,0,0,1.51.74,2,2,0,0,0,1.42-.45A2.23,2.23,0,0,0,54.37,5Z"/><path class="cls-1" d="M61.7,7.21h-.6V3.8H57V7.21h-.6V.1H57V3.29H61.1V.1h.6Z"/><path class="cls-1" d="M68.8,7.21h-.6L64.12,1.12V7.21h-.61V.1h.61l4.09,6.09V.1h.59Z"/><path class="cls-1" d="M75.86,4a4,4,0,0,1-.34,1.72,2.46,2.46,0,0,1-1,1.14,2.65,2.65,0,0,1-1.46.41,2.51,2.51,0,0,1-2-.9A3.55,3.55,0,0,1,70.32,4V3.28a4.06,4.06,0,0,1,.35-1.72,2.65,2.65,0,0,1,1-1.16,2.83,2.83,0,0,1,2.9,0,2.57,2.57,0,0,1,1,1.11,4,4,0,0,1,.35,1.68Zm-.6-.77a3.1,3.1,0,0,0-.58-2,2.09,2.09,0,0,0-3.17,0,3.16,3.16,0,0,0-.59,2V4a3.13,3.13,0,0,0,.59,2,2.09,2.09,0,0,0,3.18,0,3.2,3.2,0,0,0,.57-2Z"/><path class="cls-1" d="M78,6.7h3.51v.51H77.38V.1H78Z"/><path class="cls-1" d="M87.58,4a4,4,0,0,1-.34,1.72,2.48,2.48,0,0,1-1,1.14,2.62,2.62,0,0,1-1.45.41,2.51,2.51,0,0,1-2-.9A3.55,3.55,0,0,1,82,4V3.28a4.06,4.06,0,0,1,.34-1.72,2.67,2.67,0,0,1,1-1.16,2.67,2.67,0,0,1,3.87,1.11,4.19,4.19,0,0,1,.35,1.68ZM87,3.27a3.1,3.1,0,0,0-.58-2,2.09,2.09,0,0,0-3.17,0,3.16,3.16,0,0,0-.59,2V4a3.13,3.13,0,0,0,.59,2,2.09,2.09,0,0,0,3.18,0A3.2,3.2,0,0,0,87,4Z"/><path class="cls-1" d="M94.23,6.36a2.05,2.05,0,0,1-1,.7,4.39,4.39,0,0,1-1.49.25,2.78,2.78,0,0,1-1.49-.41,2.57,2.57,0,0,1-1-1.13,3.77,3.77,0,0,1-.36-1.68v-.9A3.41,3.41,0,0,1,89.65.86a2.54,2.54,0,0,1,2-.86,2.7,2.7,0,0,1,1.77.56,2.31,2.31,0,0,1,.79,1.54h-.6A1.86,1.86,0,0,0,93,.91a2,2,0,0,0-1.32-.4,1.89,1.89,0,0,0-1.57.71,3.06,3.06,0,0,0-.58,2v.84a3.58,3.58,0,0,0,.27,1.43,2.25,2.25,0,0,0,.79,1,2.18,2.18,0,0,0,1.19.34,3.19,3.19,0,0,0,1.33-.25,1.42,1.42,0,0,0,.54-.37V4.34H91.72V3.83h2.51Z"/><path class="cls-1" d="M96.66,7.21h-.6V.1h.6Z"/><path class="cls-1" d="M102.52,3.8H99.19V6.7H103v.51H98.59V.1H103V.61h-3.8V3.29h3.33Z"/><path class="cls-1" d="M108.3,5.46a1.15,1.15,0,0,0-.41-.94,4.45,4.45,0,0,0-1.52-.65,5.32,5.32,0,0,1-1.61-.68A1.58,1.58,0,0,1,104,1.84a1.58,1.58,0,0,1,.67-1.33A2.76,2.76,0,0,1,106.42,0a2.86,2.86,0,0,1,1.27.27,2.17,2.17,0,0,1,.87.77,2,2,0,0,1,.31,1.08h-.61a1.51,1.51,0,0,0-.5-1.17,2,2,0,0,0-1.34-.44,2.1,2.1,0,0,0-1.29.36,1.13,1.13,0,0,0-.49,1,1.08,1.08,0,0,0,.44.89,3.89,3.89,0,0,0,1.39.6,6.61,6.61,0,0,1,1.45.55,1.94,1.94,0,0,1,.74.67,1.63,1.63,0,0,1,.25.92,1.61,1.61,0,0,1-.67,1.35,2.86,2.86,0,0,1-1.77.51A3.47,3.47,0,0,1,105.09,7a2,2,0,0,1-1-.76,1.9,1.9,0,0,1-.33-1.1h.6A1.42,1.42,0,0,0,105,6.36a2.41,2.41,0,0,0,1.5.44,2.16,2.16,0,0,0,1.33-.37A1.13,1.13,0,0,0,108.3,5.46Z"/><path class="cls-2" d="M.8.1,3.42,6.37,6.05.1h.8V7.21h-.6V4.11L6.3.94,3.65,7.21H3.19L.55,1l0,3.13V7.21H0V.1Z"/><path class="cls-2" d="M12.58,5.21H9.35l-.73,2H8L10.68.1h.57l2.69,7.11h-.62Zm-3-.51h2.85L11,.83Z"/><path class="cls-2" d="M19.18.61H16.74v6.6h-.6V.61H13.71V.1h5.47Z"/><path class="cls-2" d="M24.27,5.46a1.17,1.17,0,0,0-.41-.94,4.54,4.54,0,0,0-1.52-.65,5.21,5.21,0,0,1-1.61-.68A1.59,1.59,0,0,1,20,1.84,1.59,1.59,0,0,1,20.68.51,2.74,2.74,0,0,1,22.39,0a2.89,2.89,0,0,1,1.27.27,2.17,2.17,0,0,1,.87.77,2,2,0,0,1,.3,1.08h-.6A1.51,1.51,0,0,0,23.73,1,2,2,0,0,0,22.39.51a2.15,2.15,0,0,0-1.3.36,1.15,1.15,0,0,0-.48,1,1.1,1.1,0,0,0,.43.89,4,4,0,0,0,1.4.6,7.5,7.5,0,0,1,1.45.54,2.13,2.13,0,0,1,.74.68,1.71,1.71,0,0,1,.25.92,1.63,1.63,0,0,1-.67,1.35,2.86,2.86,0,0,1-1.77.5A3.46,3.46,0,0,1,21.06,7a2.11,2.11,0,0,1-1-.76,2,2,0,0,1-.32-1.1h.6a1.42,1.42,0,0,0,.56,1.18,2.39,2.39,0,0,0,1.5.44,2.25,2.25,0,0,0,1.33-.37A1.15,1.15,0,0,0,24.27,5.46Z"/><path class="cls-2" d="M31.43,4a4.19,4.19,0,0,1-.34,1.72,2.54,2.54,0,0,1-1,1.14,2.65,2.65,0,0,1-1.46.4,2.5,2.5,0,0,1-2-.89A3.55,3.55,0,0,1,25.88,4V3.28a4,4,0,0,1,.35-1.72A2.53,2.53,0,0,1,28.65,0,2.61,2.61,0,0,1,30.1.4a2.57,2.57,0,0,1,1,1.11,4,4,0,0,1,.36,1.68Zm-.6-.77a3.15,3.15,0,0,0-.59-2,2.1,2.1,0,0,0-3.17,0,3.16,3.16,0,0,0-.59,2V4a3.13,3.13,0,0,0,.59,2,2.09,2.09,0,0,0,3.18,0,3.21,3.21,0,0,0,.58-2Z"/><path class="cls-2" d="M38.23,7.21h-.6L33.54,1.12V7.21h-.6V.1h.6l4.1,6.09V.1h.59Z"/></g></g></svg>