<svg xmlns="http://www.w3.org/2000/svg" viewBox="0 0 86.86 82.61"><defs><style>.cls-1{fill:#fff;}.cls-2{fill:none;stroke:#fff;stroke-miterlimit:10;}</style></defs><title>Asset 16</title><g id="Layer_2" data-name="Layer 2"><g id="MT"><path class="cls-1" d="M13,12.39l15.47,37L44,12.39H48.7V54.33H45.15V36.07l.29-18.73-15.61,37H27.09L11.54,17.49,11.82,36V54.33H8.28V12.39Z"/><rect class="cls-2" x="0.5" y="0.5" width="85.86" height="81.61"/><path class="cls-1" d="M9.33,58.57,12,64.84l2.63-6.27h.8v7.11h-.6v-3.1l.05-3.17-2.65,6.27h-.46L9.08,59.43l.05,3.13v3.12h-.6V58.57Z"/><path class="cls-1" d="M21.11,63.68H17.88l-.73,2h-.63l2.69-7.11h.57l2.69,7.11h-.62Zm-3-.51h2.85L19.49,59.3Z"/><path class="cls-1" d="M27.71,59.08H25.27v6.6h-.6v-6.6H22.24v-.51h5.47Z"/><path class="cls-1" d="M32.8,63.93a1.16,1.16,0,0,0-.41-.93,4.52,4.52,0,0,0-1.52-.66,5.49,5.49,0,0,1-1.61-.67,1.62,1.62,0,0,1-.73-1.36A1.59,1.59,0,0,1,29.21,59a3.08,3.08,0,0,1,3-.23,2.08,2.08,0,0,1,.87.76,2,2,0,0,1,.3,1.09h-.6a1.52,1.52,0,0,0-.5-1.18A2,2,0,0,0,30.92,59a2.15,2.15,0,0,0-1.3.36,1.15,1.15,0,0,0-.48,1,1.09,1.09,0,0,0,.43.88,4,4,0,0,0,1.4.6,6.82,6.82,0,0,1,1.45.55,2,2,0,0,1,.74.67,1.73,1.73,0,0,1,.25.92,1.63,1.63,0,0,1-.67,1.35,2.86,2.86,0,0,1-1.77.51,3.43,3.43,0,0,1-1.38-.27,2.16,2.16,0,0,1-1-.75,2,2,0,0,1-.32-1.11h.6a1.41,1.41,0,0,0,.56,1.18,2.39,2.39,0,0,0,1.5.44,2.18,2.18,0,0,0,1.33-.37A1.14,1.14,0,0,0,32.8,63.93Z"/><path class="cls-1" d="M40,62.51a4.19,4.19,0,0,1-.34,1.72,2.62,2.62,0,0,1-1,1.15,2.73,2.73,0,0,1-1.46.4,2.53,2.53,0,0,1-2-.89,3.59,3.59,0,0,1-.77-2.41v-.73A4.06,4.06,0,0,1,34.76,60a2.57,2.57,0,0,1,1-1.15,2.64,2.64,0,0,1,1.45-.41,2.61,2.61,0,0,1,1.45.4,2.54,2.54,0,0,1,1,1.12A4,4,0,0,1,40,61.66Zm-.61-.77a3.1,3.1,0,0,0-.58-2A1.89,1.89,0,0,0,37.18,59a1.91,1.91,0,0,0-1.58.73,3.2,3.2,0,0,0-.59,2v.74a3.13,3.13,0,0,0,.59,2,2.09,2.09,0,0,0,3.18,0,3.2,3.2,0,0,0,.57-2Z"/><path class="cls-1" d="M46.76,65.68h-.6l-4.09-6.09v6.09h-.6V58.57h.6l4.1,6.09V58.57h.59Z"/><path class="cls-1" d="M14,68.09H11.55v6.6H11v-6.6H8.51v-.5H14Z"/><path class="cls-1" d="M19.06,71.29H15.73v2.9h3.82v.5H15.13v-7.1h4.4v.5h-3.8v2.69h3.33Z"/><path class="cls-1" d="M25.85,72.48a2.56,2.56,0,0,1-.8,1.72,2.68,2.68,0,0,1-1.81.59,2.52,2.52,0,0,1-1.4-.39,2.59,2.59,0,0,1-.94-1.12,4,4,0,0,1-.34-1.66V70.7A4,4,0,0,1,20.89,69a2.49,2.49,0,0,1,1-1.13,2.87,2.87,0,0,1,3.23.21,2.58,2.58,0,0,1,.77,1.71h-.6a1.81,1.81,0,0,0-2-1.81,1.86,1.86,0,0,0-1.54.72,3.15,3.15,0,0,0-.58,2v.87a3.17,3.17,0,0,0,.56,2,1.81,1.81,0,0,0,1.52.73,2,2,0,0,0,1.42-.45,2.17,2.17,0,0,0,.59-1.35Z"/><path class="cls-1" d="M32.58,74.69H32v-3.4H27.91v3.4h-.6v-7.1h.6v3.19H32V67.59h.6Z"/><path class="cls-1" d="M39.68,74.69h-.6L35,68.61v6.08h-.6v-7.1H35l4.1,6.08V67.59h.59Z"/><path class="cls-1" d="M46.74,71.53a4.06,4.06,0,0,1-.34,1.72A2.55,2.55,0,0,1,44,74.79a2.5,2.5,0,0,1-2-.89,3.5,3.5,0,0,1-.77-2.4v-.74A4.09,4.09,0,0,1,41.54,69a2.64,2.64,0,0,1,1-1.15,2.61,2.61,0,0,1,1.45-.4,2.69,2.69,0,0,1,1.45.39,2.73,2.73,0,0,1,1,1.12,4.16,4.16,0,0,1,.35,1.68Zm-.6-.78a3.14,3.14,0,0,0-.58-2,2.09,2.09,0,0,0-3.17,0,3.2,3.2,0,0,0-.59,2v.75a3.13,3.13,0,0,0,.59,2,1.93,1.93,0,0,0,1.59.74,1.89,1.89,0,0,0,1.59-.73,3.22,3.22,0,0,0,.57-2Z"/><path class="cls-1" d="M48.86,74.19h3.51v.5H48.26v-7.1h.6Z"/><path class="cls-1" d="M58.46,71.53a4.06,4.06,0,0,1-.34,1.72,2.65,2.65,0,0,1-1,1.14,2.61,2.61,0,0,1-1.45.4,2.52,2.52,0,0,1-2-.89,3.54,3.54,0,0,1-.76-2.4v-.74A4.09,4.09,0,0,1,53.26,69a2.64,2.64,0,0,1,1-1.15,2.61,2.61,0,0,1,1.45-.4,2.66,2.66,0,0,1,1.44.39,2.59,2.59,0,0,1,1,1.12,4,4,0,0,1,.36,1.68Zm-.6-.78a3.14,3.14,0,0,0-.58-2A2,2,0,0,0,55.69,68a1.93,1.93,0,0,0-1.58.73,3.14,3.14,0,0,0-.59,2v.75a3.13,3.13,0,0,0,.58,2,1.93,1.93,0,0,0,1.6.74,1.89,1.89,0,0,0,1.59-.73,3.22,3.22,0,0,0,.57-2Z"/><path class="cls-1" d="M65.1,73.85a1.9,1.9,0,0,1-1,.69,4.22,4.22,0,0,1-1.5.25,2.74,2.74,0,0,1-1.48-.4,2.71,2.71,0,0,1-1-1.13,4.07,4.07,0,0,1-.36-1.68v-.9a3.44,3.44,0,0,1,.75-2.34,2.54,2.54,0,0,1,2-.85,2.6,2.6,0,0,1,1.76.56,2.26,2.26,0,0,1,.8,1.54h-.6a1.83,1.83,0,0,0-.64-1.19,2,2,0,0,0-1.32-.4,2,2,0,0,0-1.58.7,3.13,3.13,0,0,0-.58,2v.84A3.62,3.62,0,0,0,60.66,73a2.21,2.21,0,0,0,.79,1,2.07,2.07,0,0,0,1.18.34A3.38,3.38,0,0,0,64,74a1.32,1.32,0,0,0,.53-.38V71.83H62.6v-.51h2.5Z"/><path class="cls-1" d="M67.54,74.69h-.6v-7.1h.6Z"/><path class="cls-1" d="M73.4,71.29H70.07v2.9h3.82v.5H69.47v-7.1h4.4v.5h-3.8v2.69H73.4Z"/><path class="cls-1" d="M79.18,73a1.17,1.17,0,0,0-.41-.94,4.35,4.35,0,0,0-1.52-.65,5.46,5.46,0,0,1-1.61-.68,1.61,1.61,0,0,1-.73-1.36A1.59,1.59,0,0,1,75.59,68a2.74,2.74,0,0,1,1.71-.51,2.89,2.89,0,0,1,1.27.27,2.15,2.15,0,0,1,.87.76,2.05,2.05,0,0,1,.3,1.09h-.6a1.5,1.5,0,0,0-.5-1.17A1.92,1.92,0,0,0,77.3,68a2.15,2.15,0,0,0-1.3.36,1.14,1.14,0,0,0-.48,1,1.08,1.08,0,0,0,.43.89,4.15,4.15,0,0,0,1.4.6,6.89,6.89,0,0,1,1.45.54,2.11,2.11,0,0,1,.74.67,1.74,1.74,0,0,1,.25.93,1.6,1.6,0,0,1-.67,1.34,2.86,2.86,0,0,1-1.77.51A3.47,3.47,0,0,1,76,74.52a2.16,2.16,0,0,1-1-.75,2,2,0,0,1-.32-1.11h.6a1.44,1.44,0,0,0,.56,1.19,2.39,2.39,0,0,0,1.5.43,2.25,2.25,0,0,0,1.33-.36A1.16,1.16,0,0,0,79.18,73Z"/><path class="cls-1" d="M80.75,15.38H66.38V54.33H62.83V15.38H48.49v-3H80.75Z"/></g></g></svg>