<svg xmlns="http://www.w3.org/2000/svg" viewBox="0 0 153.55 112.46"><defs><style>.cls-1{fill:#e5e8ec;}.cls-2{fill:#01c6da;}.cls-3{fill:#cdd5d7;}.cls-4{fill:#484f59;}.cls-5{fill:#ff876c;}.cls-6{fill:#b7bec0;}.cls-7{fill:#01bacc;}.cls-8{fill:#f7f8fc;}.cls-9{fill:#ffa38f;}.cls-10{fill:#e36e54;}.cls-11{fill:#f0ca67;}.cls-12{fill:#f4da80;}.cls-13{fill:#30363d;}.cls-14{fill:#282d33;}.cls-15{fill:#cdd5d8;}.cls-16{fill:#7e7e7e;}.cls-17{fill:#fff;}.cls-18{fill:#f6f2f1;}.cls-19{fill:#dce4e7;}.cls-20{fill:#c1c8cb;}.cls-21{fill:#aab0b2;}.cls-22{fill:#8d9293;}.cls-23{fill:#999;}.cls-24{fill:#9eaecb;}.cls-25{fill:#8a98b2;}.cls-26{fill:#758197;}.cls-27{fill:#596273;}.cls-28{fill:#474f59;}.cls-29{fill:#ffa57d;}.cls-30{fill:#ff905f;}.cls-31{fill:#ec8558;}.cls-32{fill:#d46f41;}.cls-33{fill:#bd633a;}.cls-34{fill:#aa5934;}.cls-35{fill:#8b8b8b;}.cls-36{fill:#96d5da;}.cls-37{fill:#7cccd6;}.cls-38{fill:#72bcc5;}.cls-39{fill:#6bb0b9;}.cls-40{fill:#5f9ca4;}.cls-41{fill:#53888f;}</style></defs><title>Branding</title><g id="Layer_2" data-name="Layer 2"><g id="Layer_4" data-name="Layer 4"><polygon class="cls-1" points="125.79 99.79 125.79 47.01 125.79 14.71 112.51 1.58 53.93 1.58 53.93 21.17 53.93 47.01 53.93 99.79 125.79 99.79"/><polygon class="cls-2" points="112.51 14.85 125.79 14.85 112.51 1.58 112.51 14.85"/><polygon class="cls-3" points="125.79 14.85 112.51 14.85 125.79 28.12 125.79 14.85"/><path class="cls-4" d="M63.86,9.59a1.71,1.71,0,1,1,1.71,1.71A1.71,1.71,0,0,1,63.86,9.59Z"/><path class="cls-2" d="M59.11,9.59a1.71,1.71,0,1,1,1.71,1.71A1.71,1.71,0,0,1,59.11,9.59Z"/><path class="cls-5" d="M72,9.59a1.71,1.71,0,1,1-1.7-1.7A1.71,1.71,0,0,1,72,9.59Z"/><rect class="cls-6" x="59.11" y="13.95" width="17.54" height="1"/><rect class="cls-6" x="59.11" y="16.34" width="24.91" height="1"/><rect class="cls-6" x="59.11" y="18.73" width="19.73" height="1"/><rect class="cls-7" x="79.05" y="46.56" width="74.5" height="36.04"/><path class="cls-2" d="M80.67,49.94,112.38,72.2a7.31,7.31,0,0,0,7.84,0l31.71-22.26a3.46,3.46,0,0,0,1.62-2.58V47a3.65,3.65,0,0,0-.07-.46H79.12A3.23,3.23,0,0,0,80.67,49.94Z"/><rect class="cls-4" x="59.69" y="68.56" width="34.92" height="21.82"/><rect class="cls-8" x="63.33" y="80.87" width="14.08" height="1.11"/><rect class="cls-8" x="63.33" y="78.61" width="15.19" height="1.12"/><rect class="cls-8" x="63.33" y="83.14" width="15" height="1.12"/><rect class="cls-8" x="63.33" y="85.41" width="11.48" height="1.12"/><rect class="cls-8" x="63.33" y="71.47" width="12.93" height="1.81"/><rect class="cls-8" x="63.33" y="74.22" width="8.66" height="0.68"/><path class="cls-5" d="M133,27.49v1.42h2.52V27.49a.27.27,0,0,0-.27-.27h-2A.27.27,0,0,0,133,27.49Z"/><path class="cls-9" d="M133.38,27.52v1.39h1.07V27.52a.13.13,0,0,0-.13-.14h-.8A.14.14,0,0,0,133.38,27.52Z"/><path class="cls-10" d="M135,28.91h.59V27.49a.27.27,0,0,0-.27-.27H135Z"/><path class="cls-5" d="M133,33.74V92.31a.7.7,0,0,0,.6-.58v-58Z"/><path class="cls-9" d="M135,33.74h-1.4v58h0a.71.71,0,0,0,1.4,0h0Z"/><path class="cls-5" d="M135,91.73a.69.69,0,0,0,.59.58V33.74H135Z"/><path class="cls-1" d="M135.59,92.31a.69.69,0,0,1-.59-.58h0a.71.71,0,0,1-1.4,0h0a.7.7,0,0,1-.6.58l1.3,5.31Z"/><path class="cls-3" d="M135.59,92.31a.69.69,0,0,1-.59-.58h0l-.7,5.89Z"/><rect class="cls-11" x="133.02" y="28.86" width="2.56" height="4.88"/><rect class="cls-12" x="133.87" y="28.86" width="0.52" height="4.88"/><path class="cls-13" d="M134.69,96a2.22,2.22,0,0,0-.37,0,2.73,2.73,0,0,0-.41,0l.39,1.6Z"/><rect class="cls-12" x="133.09" y="32.53" width="0.16" height="0.7"/><rect class="cls-12" x="133.46" y="32.53" width="0.17" height="0.7"/><rect class="cls-11" x="133.84" y="32.53" width="0.16" height="0.7"/><rect class="cls-11" x="134.21" y="32.53" width="0.17" height="0.7"/><rect class="cls-12" x="134.59" y="32.53" width="0.16" height="0.7"/><rect class="cls-12" x="134.97" y="32.53" width="0.16" height="0.7"/><rect class="cls-12" x="135.34" y="32.53" width="0.17" height="0.7"/><rect class="cls-12" x="133.09" y="29.54" width="0.16" height="0.7"/><rect class="cls-12" x="133.46" y="29.54" width="0.17" height="0.7"/><rect class="cls-11" x="133.84" y="29.54" width="0.16" height="0.7"/><rect class="cls-11" x="134.21" y="29.54" width="0.17" height="0.7"/><rect class="cls-12" x="134.59" y="29.54" width="0.16" height="0.7"/><rect class="cls-12" x="134.97" y="29.54" width="0.16" height="0.7"/><rect class="cls-12" x="135.34" y="29.54" width="0.17" height="0.7"/><path class="cls-2" d="M86.77,72.14a1,1,0,1,1,1,1A1,1,0,0,1,86.77,72.14Z"/><path class="cls-8" d="M83.92,72.14a1,1,0,1,1,1,1A1,1,0,0,1,83.92,72.14Z"/><path class="cls-5" d="M91.67,72.14a1,1,0,1,1-1-1A1,1,0,0,1,91.67,72.14Z"/><path class="cls-1" d="M143.05,39.17a.67.67,0,0,1,.63-.45h0a.65.65,0,0,1,.66.66V51.57a.66.66,0,0,1-.66.66h-.19v.2h.19a.87.87,0,0,0,.86-.86V39.38a.86.86,0,0,0-.86-.86h0a.88.88,0,0,0-.84.65Z"/><path class="cls-3" d="M141.82,97.39a.32.32,0,0,1-.29.23h0a.34.34,0,0,1-.3-.23c0-.16-.08-.31-.11-.47s.13-.32.41-.32h0c.27,0,.46.18.41.32Z"/><polygon class="cls-1" points="141.1 97.17 140.68 93.47 141.53 93.47 142.37 93.47 141.95 97.17 141.1 97.17"/><polygon class="cls-3" points="141.25 97.17 140.85 93.47 141.19 93.47 141.54 93.47 141.37 97.17 141.25 97.17"/><polygon class="cls-13" points="140.49 93.53 139.84 82.47 141.49 82.47 141.98 82.47 141.98 93.53 140.49 93.53"/><polygon class="cls-14" points="140.91 93.53 140.25 82.47 141.9 82.47 142.4 82.47 142.4 93.53 140.91 93.53"/><polygon class="cls-13" points="142.53 93.53 143.19 82.47 141.53 82.47 141.7 82.47 141.7 93.53 142.53 93.53"/><path class="cls-1" d="M143.24,57.79h-3.53V39.86a3.08,3.08,0,0,1,3.53,0Z"/><rect class="cls-3" x="140.18" y="39.86" width="1.93" height="17.92"/><rect class="cls-6" x="140.65" y="39.86" width="0.87" height="17.92"/><path class="cls-1" d="M142.66,41.52h-2.37v-4.7a1.53,1.53,0,0,1,2.37,0Z"/><rect class="cls-3" x="140.6" y="36.82" width="1.3" height="4.7"/><rect class="cls-6" x="140.92" y="36.82" width="0.59" height="4.7"/><polygon class="cls-14" points="142.65 82.47 142 93.53 142.25 93.53 142.91 82.47 142.65 82.47"/><rect class="cls-1" x="139.71" y="58.07" width="3.53" height="24.84"/><rect class="cls-3" x="140.18" y="58.07" width="1.93" height="24.84"/><rect class="cls-6" x="140.65" y="58.07" width="0.87" height="24.84"/><rect class="cls-1" x="139.62" y="57.69" width="3.7" height="0.37"/><rect class="cls-13" x="139.62" y="38.91" width="3.7" height="4"/><rect class="cls-14" x="140.12" y="38.91" width="1.88" height="4"/><rect class="cls-3" x="140.11" y="57.69" width="1.65" height="0.37"/><rect class="cls-6" x="140.61" y="57.69" width="0.51" height="0.37"/><rect class="cls-1" x="139.67" y="82.56" width="3.62" height="0.34"/><rect class="cls-3" x="140.14" y="82.56" width="1.1" height="0.34"/><rect class="cls-6" x="140.63" y="82.56" width="0.28" height="0.34"/><path class="cls-6" d="M144.38,51.57V39.38a.65.65,0,0,0-.41-.61.66.66,0,0,1,.23.5v12.4a.7.7,0,0,1-.23.51A.67.67,0,0,0,144.38,51.57Z"/><path class="cls-15" d="M43.23,61l.21-57.62a1.24,1.24,0,0,0-1.23-1.24l-9.28,0a1.24,1.24,0,0,0-1.24,1.23L31.48,61a1.24,1.24,0,0,0,1.23,1.24l9.28,0A1.23,1.23,0,0,0,43.23,61ZM36.86,5.8a.69.69,0,0,1,.7-.69.69.69,0,1,1-.7.69Z"/><path class="cls-16" d="M38.82,5.8a1.27,1.27,0,0,0-2.53,0,1.27,1.27,0,0,0,2.53,0Zm-2,0a.7.7,0,1,1,.69.69A.69.69,0,0,1,36.86,5.8Z"/><path class="cls-17" d="M42.62,61.32,43.15,3.7a1.23,1.23,0,0,0-1.22-1.24l-9.28-.09a1.23,1.23,0,0,0-1.24,1.22l-.53,57.62a1.22,1.22,0,0,0,1.22,1.24l9.28.09A1.22,1.22,0,0,0,42.62,61.32ZM36.56,6a.7.7,0,1,1,.69.7A.7.7,0,0,1,36.56,6Z"/><rect class="cls-18" x="32.37" y="51.13" width="8.84" height="11.75" transform="translate(-20.54 93.28) rotate(-89.49)"/><rect class="cls-19" x="32.45" y="42.35" width="8.84" height="11.75" transform="translate(-11.7 84.64) rotate(-89.46)"/><rect class="cls-15" x="32.53" y="33.58" width="8.84" height="11.74" transform="translate(-2.83 76.04) rotate(-89.48)"/><rect class="cls-20" x="32.61" y="24.8" width="8.84" height="11.75" transform="translate(6.02 67.42) rotate(-89.47)"/><rect class="cls-21" x="32.69" y="16.02" width="8.84" height="11.74" transform="translate(14.89 58.81) rotate(-89.5)"/><rect class="cls-22" x="32.77" y="7.24" width="8.84" height="11.75" transform="translate(23.74 50.19) rotate(-89.48)"/><path class="cls-23" d="M38.52,6.06a1.27,1.27,0,1,0-1.28,1.25A1.27,1.27,0,0,0,38.52,6.06Zm-2,0a.7.7,0,1,1,.69.7A.7.7,0,0,1,36.56,6Z"/><path class="cls-17" d="M36.47,61.49,43.35,4.28a1.22,1.22,0,0,0-1.07-1.37L33.06,1.8a1.23,1.23,0,0,0-1.37,1.07L24.8,60.08a1.24,1.24,0,0,0,1.08,1.37l9.22,1.11A1.24,1.24,0,0,0,36.47,61.49Zm.07-55.62a.7.7,0,0,1,.78-.6.68.68,0,0,1,.6.77.7.7,0,0,1-.77.61A.71.71,0,0,1,36.54,5.87Z"/><rect class="cls-24" x="26.73" y="50.68" width="8.84" height="11.75" transform="translate(-28.72 80.73) rotate(-83.15)"/><rect class="cls-25" x="27.77" y="41.96" width="8.84" height="11.75" transform="translate(-19.16 74.07) rotate(-83.12)"/><rect class="cls-26" x="28.82" y="33.25" width="8.84" height="11.75" transform="translate(-9.58 67.45) rotate(-83.13)"/><rect class="cls-27" x="29.87" y="24.54" width="8.84" height="11.75" transform="translate(0 60.82) rotate(-83.13)"/><rect class="cls-28" x="30.92" y="15.82" width="8.84" height="11.75" transform="translate(9.58 54.19) rotate(-83.14)"/><rect class="cls-13" x="31.97" y="7.11" width="8.84" height="11.75" transform="translate(19.16 47.56) rotate(-83.13)"/><path class="cls-16" d="M38.49,6.11a1.26,1.26,0,1,0-1.41,1.1A1.27,1.27,0,0,0,38.49,6.11Zm-2-.24a.7.7,0,0,1,.78-.6.68.68,0,0,1,.6.77.7.7,0,0,1-.77.61A.71.71,0,0,1,36.54,5.87Z"/><path class="cls-17" d="M26,60.34,43.54,5.46a1.23,1.23,0,0,0-.79-1.55L33.91,1.08a1.23,1.23,0,0,0-1.55.8L14.79,56.76a1.23,1.23,0,0,0,.8,1.55l8.84,2.83A1.24,1.24,0,0,0,26,60.34ZM36.56,5.74a.7.7,0,0,1,.87-.45.69.69,0,0,1,.45.87.69.69,0,1,1-1.32-.42Z"/><rect class="cls-29" x="17.26" y="48.61" width="8.84" height="11.75" transform="translate(-36.82 58.53) rotate(-72.26)"/><rect class="cls-30" x="19.94" y="40.25" width="8.84" height="11.75" transform="translate(-27 55.26) rotate(-72.24)"/><rect class="cls-31" x="22.62" y="31.9" width="8.84" height="11.75" transform="matrix(0.3, -0.95, 0.95, 0.3, -17.18, 52)"/><rect class="cls-32" x="25.29" y="23.54" width="8.84" height="11.75" transform="translate(-7.35 48.75) rotate(-72.26)"/><rect class="cls-33" x="27.97" y="15.18" width="8.84" height="11.75" transform="matrix(0.3, -0.95, 0.95, 0.3, 2.47, 45.48)"/><rect class="cls-34" x="30.65" y="6.82" width="8.84" height="11.75" transform="translate(12.29 42.22) rotate(-72.25)"/><path class="cls-35" d="M38.42,6.34a1.26,1.26,0,1,0-1.58.81A1.25,1.25,0,0,0,38.42,6.34Zm-1.86-.6a.7.7,0,0,1,.87-.45.69.69,0,0,1,.45.87.69.69,0,1,1-1.32-.42Z"/><path class="cls-17" d="M9.76,54.12,43.46,7.38a1.23,1.23,0,0,0-.28-1.72L35.65.23a1.24,1.24,0,0,0-1.72.28L.23,47.25A1.24,1.24,0,0,0,.51,49L8,54.4A1.24,1.24,0,0,0,9.76,54.12Zm27-48.63a.68.68,0,0,1,1-.16.7.7,0,0,1,.16,1,.69.69,0,0,1-1,.15A.67.67,0,0,1,36.73,5.49Z"/><rect class="cls-36" x="3.07" y="41.35" width="8.84" height="11.75" transform="translate(-35.21 25.69) rotate(-54.22)"/><rect class="cls-37" x="8.2" y="34.24" width="8.84" height="11.74" transform="translate(-27.29 26.89) rotate(-54.2)"/><rect class="cls-38" x="13.34" y="27.12" width="8.84" height="11.75" transform="translate(-19.39 28.1) rotate(-54.22)"/><rect class="cls-39" x="18.47" y="20" width="8.84" height="11.75" transform="translate(-11.48 29.31) rotate(-54.21)"/><rect class="cls-40" x="23.6" y="12.88" width="8.84" height="11.75" transform="translate(-3.57 30.52) rotate(-54.22)"/><rect class="cls-41" x="28.74" y="5.76" width="8.84" height="11.75" transform="translate(4.33 31.72) rotate(-54.21)"/><path class="cls-23" d="M38.32,6.63a1.26,1.26,0,1,0-1.76.28A1.25,1.25,0,0,0,38.32,6.63ZM36.73,5.49a.68.68,0,0,1,1-.16.7.7,0,0,1,.16,1,.69.69,0,0,1-1,.15A.67.67,0,0,1,36.73,5.49Z"/><path class="cls-2" d="M20.61,85a4,4,0,1,1,4-4A4,4,0,0,1,20.61,85Zm0-7a3,3,0,1,0,3,3A3,3,0,0,0,20.61,78Z"/><path class="cls-5" d="M20.61,99.34l-4-4,4-4,4.05,4ZM18,95.3l2.63,2.63,2.63-2.63-2.63-2.63Z"/><path class="cls-12" d="M24.39,112.46H16.83l3.78-6.54Zm-5.83-1h4.1l-2.05-3.54Z"/><rect class="cls-6" x="28.78" y="80.34" width="17.9" height="1"/><rect class="cls-6" x="28.78" y="93.96" width="17.9" height="1"/><rect class="cls-6" x="28.78" y="107.58" width="17.9" height="1"/></g></g></svg>