<svg xmlns="http://www.w3.org/2000/svg" viewBox="0 0 140.08 110.1"><defs><style>.cls-1{fill:#484f59;}.cls-2{fill:#01c6da;}.cls-3{fill:#cdd5d7;}.cls-4{fill:#ff876c;}.cls-5{fill:#b7bec0;}</style></defs><title>Data Analytics</title><g id="Layer_2" data-name="Layer 2"><g id="Layer_4" data-name="Layer 4"><path class="cls-1" d="M73,38.39,50.39,7.33A36.83,36.83,0,0,1,73,0Z"/><path class="cls-2" d="M73,38.39,66.67.47A40.3,40.3,0,0,1,73,0Z"/><path class="cls-3" d="M73,38.39V0A38.4,38.4,0,1,1,34.55,38.39,37.24,37.24,0,0,1,50.39,7.33Z"/><path class="cls-4" d="M73,38.39l36.53,11.87A38.4,38.4,0,0,0,84.82,1.87,36.71,36.71,0,0,0,73,0Z"/><rect class="cls-5" x="9.65" y="90.26" width="129.82" height="0.32"/><rect class="cls-5" x="9.65" y="71.4" width="129.82" height="0.32"/><rect class="cls-5" x="9.65" y="52.53" width="129.82" height="0.32"/><polygon class="cls-1" points="139.46 58.05 123.49 49.43 106.78 56.02 90.68 44.71 78.18 55.49 63.97 56.4 54.65 41.76 43.8 36.75 32.52 46.3 21.56 45.86 9.92 56.21 9.05 55.23 21.09 44.52 32.06 44.97 43.59 35.21 55.56 40.73 64.66 55.04 77.65 54.2 90.59 43.04 106.96 54.54 123.58 47.98 140.08 56.9 139.46 58.05"/><rect class="cls-5" y="89.76" width="6.11" height="1.31"/><rect class="cls-5" y="70.89" width="6.11" height="1.32"/><rect class="cls-5" y="52.03" width="6.11" height="1.32"/><polygon class="cls-4" points="93.36 83.15 79.88 81.78 66.84 77 52.64 77.45 44.26 68.62 29.62 66.53 23.09 80.89 9.57 82.69 9.39 81.39 22.19 79.69 28.82 65.09 44.9 67.39 53.19 76.11 67.06 75.68 80.26 80.52 93.17 81.81 101.63 78.43 111.24 65.61 120.28 76.92 124.97 75.74 138.44 63.13 139.34 64.1 125.62 76.94 119.78 78.4 111.27 67.76 102.46 79.51 93.36 83.15"/><polygon class="cls-2" points="34.07 77.64 22.53 68.32 9.29 73.87 8.78 72.66 22.75 66.81 34.02 75.91 53.65 58.02 68.07 63.88 82.93 73.63 88.92 62.21 95.84 57.02 104.43 43.02 114.8 48.25 123.33 57.2 131.96 55.56 138.83 47.4 139.84 48.25 132.66 56.76 122.87 58.63 113.92 49.24 104.92 44.73 96.73 58 89.83 63.18 83.43 75.53 67.46 65.04 53.92 59.56 34.07 77.64"/><path class="cls-2" d="M24.62,67.46a1.87,1.87,0,1,1-1.87-1.87A1.87,1.87,0,0,1,24.62,67.46Z"/><path class="cls-2" d="M35.8,76.56a1.87,1.87,0,1,1-1.86-1.87A1.86,1.86,0,0,1,35.8,76.56Z"/><path class="cls-2" d="M55.76,58.9A1.87,1.87,0,1,1,53.9,57,1.87,1.87,0,0,1,55.76,58.9Z"/><path class="cls-2" d="M69.8,64.28a1.87,1.87,0,1,1-1.87-1.87A1.87,1.87,0,0,1,69.8,64.28Z"/><path class="cls-2" d="M84.93,74.48a1.87,1.87,0,1,1-1.86-1.87A1.86,1.86,0,0,1,84.93,74.48Z"/><path class="cls-2" d="M91.07,62.74a1.87,1.87,0,1,1-1.86-1.86A1.86,1.86,0,0,1,91.07,62.74Z"/><path class="cls-2" d="M98.42,57.37a1.86,1.86,0,1,1-1.86-1.87A1.86,1.86,0,0,1,98.42,57.37Z"/><path class="cls-2" d="M106.32,44.1a1.87,1.87,0,1,1-1.87-1.87A1.86,1.86,0,0,1,106.32,44.1Z"/><path class="cls-2" d="M116.63,48.7a1.87,1.87,0,1,1-1.87-1.86A1.87,1.87,0,0,1,116.63,48.7Z"/><path class="cls-2" d="M125,57.92a1.87,1.87,0,1,1-1.86-1.87A1.86,1.86,0,0,1,125,57.92Z"/><path class="cls-2" d="M133.74,55.83A1.87,1.87,0,1,1,131.87,54,1.86,1.86,0,0,1,133.74,55.83Z"/><rect class="cls-5" x="18.89" y="100.47" width="27.33" height="1.4"/><rect class="cls-5" x="18.89" y="104.59" width="27.33" height="1.4"/><rect class="cls-5" x="18.89" y="108.7" width="19.61" height="1.4"/><rect class="cls-4" x="14.1" y="99.84" width="3.2" height="2.67"/><rect class="cls-5" x="56.7" y="100.47" width="27.33" height="1.4"/><rect class="cls-5" x="56.7" y="104.59" width="27.33" height="1.4"/><rect class="cls-5" x="56.7" y="108.7" width="19.61" height="1.4"/><rect class="cls-2" x="51.9" y="99.84" width="3.2" height="2.67"/><rect class="cls-5" x="94.5" y="100.47" width="27.33" height="1.4"/><rect class="cls-5" x="94.5" y="104.59" width="27.33" height="1.4"/><rect class="cls-5" x="94.5" y="108.7" width="19.61" height="1.4"/><rect class="cls-1" x="89.71" y="99.84" width="3.2" height="2.67"/></g></g></svg>