<svg xmlns="http://www.w3.org/2000/svg" viewBox="0 0 159.52 115.98"><defs><style>.cls-1{fill:#ff876c;}.cls-2{fill:#b7bec0;}.cls-3{fill:#01c6da;}.cls-4{fill:#474f59;}.cls-5{fill:#30363d;}.cls-6{fill:#596273;}.cls-7{fill:#e5e8ec;}.cls-8{fill:#cdd5d7;}.cls-9{fill:#82cf8f;}.cls-10{fill:#f0ca67;}.cls-11{fill:#f7f8fc;}.cls-12{fill:#7ac286;}.cls-13{fill:#ffa38f;}.cls-14{fill:#484f59;}.cls-15{fill:#e4e4e4;}.cls-16{fill:#fff;}.cls-17{fill:#f3b840;}</style></defs><title>Mobile Content</title><g id="Layer_2" data-name="Layer 2"><g id="Layer_4" data-name="Layer 4"><path class="cls-1" d="M51,100.63H39.44a1,1,0,0,1,0-2H51a1,1,0,0,1,0,2Z"/><rect class="cls-2" y="83" width="50.95" height="1"/><path class="cls-3" d="M46.11,94.39c-1.5,0-2.22-1.2-2.86-2.25s-1.12-1.75-2-1.75-1.34.66-2,1.75-1.35,2.25-2.85,2.25-2.21-1.2-2.85-2.25-1.12-1.75-2-1.75-1.33.66-2,1.75-1.36,2.25-2.85,2.25-2.21-1.2-2.85-2.25-1.12-1.75-2-1.75v-1c1.49,0,2.21,1.19,2.85,2.24s1.13,1.76,2,1.76,1.33-.67,2-1.76,1.36-2.24,2.85-2.24,2.21,1.19,2.85,2.24,1.13,1.76,2,1.76,1.33-.67,2-1.76,1.35-2.24,2.85-2.24,2.21,1.19,2.85,2.24,1.13,1.76,2,1.76,1.33-.67,2-1.76,1.36-2.24,2.85-2.24v1c-.86,0-1.33.66-2,1.75S47.6,94.39,46.11,94.39Z"/><rect class="cls-4" x="54.86" width="57.25" height="115.98" rx="7.18" ry="7.18"/><rect class="cls-5" x="55.97" y="1.11" width="55.05" height="113.77" rx="7.18" ry="7.18"/><path class="cls-6" d="M76.68,7.09a1,1,0,1,1-1-1A1,1,0,0,1,76.68,7.09Z"/><path class="cls-6" d="M84,3.73a.63.63,0,1,1-.63-.62A.63.63,0,0,1,84,3.73Z"/><path class="cls-6" d="M87.21,7a.45.45,0,0,1-.45.45H80.13A.46.46,0,0,1,79.67,7h0a.47.47,0,0,1,.46-.47h6.63a.46.46,0,0,1,.45.47Z"/><rect class="cls-6" x="79.71" y="107.33" width="7.73" height="3.31" rx="0.83" ry="0.83"/><polygon class="cls-5" points="55.9 18.06 55.9 18.06 54.55 18.06 54.55 18.06 54.55 13.64 54.55 13.64 55.9 13.64 55.9 13.64 55.9 18.06"/><polygon class="cls-5" points="55.9 29.66 55.9 29.66 54.55 29.66 54.55 29.66 54.55 22.21 54.55 22.21 55.9 22.21 55.9 22.21 55.9 29.66"/><polygon class="cls-5" points="55.9 38.5 55.9 38.5 54.55 38.5 54.55 38.5 54.55 31.39 54.55 31.39 55.9 31.39 55.9 31.39 55.9 38.5"/><rect class="cls-7" x="58.31" y="13.16" width="50.26" height="89.2"/><polygon class="cls-7" points="58.31 41.83 58.31 70.64 93.68 13.16 75.95 13.16 58.31 41.83"/><polygon class="cls-7" points="58.31 86.61 103.51 13.16 96.76 13.16 58.31 75.65 58.31 86.61"/><rect class="cls-8" x="61.03" y="16.42" width="8.85" height="8.85"/><rect class="cls-8" x="72.98" y="16.42" width="8.85" height="8.85"/><rect class="cls-8" x="84.93" y="16.42" width="8.85" height="8.85"/><rect class="cls-8" x="96.88" y="16.42" width="8.85" height="8.85"/><rect class="cls-8" x="61.03" y="27.6" width="8.85" height="8.85"/><rect class="cls-8" x="72.98" y="27.6" width="8.85" height="8.85"/><rect class="cls-8" x="84.93" y="27.6" width="8.85" height="8.85"/><rect class="cls-8" x="96.88" y="27.6" width="8.85" height="8.85"/><rect class="cls-8" x="61.03" y="38.77" width="8.85" height="8.85"/><rect class="cls-8" x="72.98" y="38.77" width="8.85" height="8.85"/><rect class="cls-8" x="84.93" y="38.77" width="8.85" height="8.85"/><rect class="cls-9" x="61.03" y="90.62" width="8.85" height="8.85"/><rect class="cls-10" x="72.98" y="90.62" width="8.85" height="8.85"/><rect class="cls-1" x="84.93" y="90.62" width="8.85" height="8.85"/><rect class="cls-3" x="96.88" y="90.62" width="8.85" height="8.85"/><path class="cls-1" d="M125,40.86a6.47,6.47,0,1,0,6.44,6.46A6.44,6.44,0,0,0,125,40.86Z"/><path class="cls-11" d="M127.58,47.37l-4.27,2.49-.08,0a.54.54,0,0,1,0-.08v-5a.54.54,0,0,1,0-.08l.07,0,4.28,2.48.07,0Z"/><polygon class="cls-3" points="67.16 44.55 56.81 39.41 46.45 34.27 51.67 29.06 56.88 23.84 62.02 34.2 67.16 44.55"/><path class="cls-3" d="M68.26,21.05a18.95,18.95,0,1,1-19-18.94A18.94,18.94,0,0,1,68.26,21.05Z"/><path class="cls-11" d="M56.72,13.67a.67.67,0,0,0-.56-.13L46.44,15.9a.66.66,0,0,0-.5.64v7.71a2.32,2.32,0,0,0-.46,0,4,4,0,0,0-1.71.42c-1.32.62-2.6,1.95-2.37,3.18A1.61,1.61,0,0,0,43.15,29a4.2,4.2,0,0,0,1.71-.42c1.28-.61,2.51-1.87,2.38-3.07h0V20.11l8.4-2v3.82a2.14,2.14,0,0,0-.45-.05,4.07,4.07,0,0,0-1.71.43c-1.32.62-2.6,1.95-2.37,3.18a1.61,1.61,0,0,0,1.75,1.23,4.12,4.12,0,0,0,1.7-.42c1.28-.61,2.52-1.87,2.39-3.07h0v-9A.63.63,0,0,0,56.72,13.67Z"/><path class="cls-11" d="M43.22,18.08h0V12.6h-.8v4.69a1.33,1.33,0,0,0-.28,0,2.45,2.45,0,0,0-1,.26c-.81.38-1.59,1.19-1.44,1.94a1,1,0,0,0,1.06.75,2.49,2.49,0,0,0,1-.26C42.56,19.58,43.31,18.81,43.22,18.08Z"/><path class="cls-9" d="M92.22,16.23A13.56,13.56,0,0,0,81.88,38.58l-3.17,6,5.76-3.64a13.56,13.56,0,1,0,7.75-24.7Z"/><path class="cls-12" d="M92.22,16.23h-.14V43.37h.14a13.57,13.57,0,0,0,0-27.14Z"/><path class="cls-11" d="M98.08,26H87.31l-.43-1.34a.48.48,0,0,0-.07-.18h0l-.07-.09,0,0s0,0,0-.05a.18.18,0,0,0-.07-.05l0,0a.69.69,0,0,0-.47-.08l-1.51.13A.66.66,0,0,0,84,25a.67.67,0,0,0,.71.63l1.08-.09,2.67,8.37a1.58,1.58,0,0,0-.38,1,1.61,1.61,0,0,0,3.07.68h2.16a1.61,1.61,0,1,0,0-1.34H91.12a1.62,1.62,0,0,0-1.47-.94h0l-.32-1h6.94c.81,0,.94-.55,1.46-1.46l1.83-3.41C100.25,26.14,98.89,26,98.08,26Z"/><path class="cls-7" d="M94.73,36.55a1.61,1.61,0,1,0-1.46-2.28H92.08v1.34h1.19A1.61,1.61,0,0,0,94.73,36.55Z"/><path class="cls-7" d="M98.08,26h-6v6.33h4.18c.81,0,.94-.55,1.46-1.46l1.83-3.41C100.25,26.14,98.89,26,98.08,26Z"/><rect class="cls-3" x="135.63" y="31.87" width="7.62" height="1"/><rect class="cls-2" x="118.55" y="27.56" width="18.22" height="1"/><path class="cls-3" d="M159.52,35.83h-9.46V26.38h9.46Zm-8.46-1h7.46V27.38h-7.46Z"/><rect class="cls-13" x="25.64" y="57.07" width="67.89" height="11.24"/><rect class="cls-1" x="82.28" y="57.07" width="11.24" height="11.24"/><rect class="cls-1" x="25.64" y="57.07" width="11.24" height="11.24"/><rect class="cls-14" x="45.1" y="62.01" width="33.58" height="1.36"/><rect class="cls-11" x="45.1" y="62.01" width="18.93" height="1.36"/><path class="cls-7" d="M65.29,62.69a1.06,1.06,0,1,1-1.06-1.06A1.06,1.06,0,0,1,65.29,62.69Z"/><path class="cls-15" d="M64.23,64a1.31,1.31,0,1,1,1.31-1.31A1.31,1.31,0,0,1,64.23,64Zm0-2.12a.81.81,0,1,0,.81.81A.81.81,0,0,0,64.23,61.88Z"/><path class="cls-16" d="M33.71,62.69A2.65,2.65,0,1,1,31.06,60,2.65,2.65,0,0,1,33.71,62.69Z"/><polygon class="cls-1" points="32.43 62.69 31.39 63.29 30.35 63.89 30.35 62.69 30.35 61.49 31.39 62.09 32.43 62.69"/><path class="cls-16" d="M39.85,61.86a.64.64,0,0,1,.2,0,.38.38,0,0,1,.15.09.5.5,0,0,1,.1.14.48.48,0,0,1,0,.18.68.68,0,0,1,0,.15.61.61,0,0,1-.07.14.64.64,0,0,1-.1.13l-.12.12-.34.36.1,0h.48l.07,0a.09.09,0,0,1,0,.06v.16H39.3v-.09l0,0a.09.09,0,0,1,0-.05l.47-.47.1-.11.08-.11a.54.54,0,0,0,0-.11.41.41,0,0,0,0-.11.31.31,0,0,0,0-.1.18.18,0,0,0,0-.07l-.07,0-.09,0a.28.28,0,0,0-.16.05.2.2,0,0,0-.08.13l0,.06h-.09l-.14,0a.6.6,0,0,1,.06-.19.48.48,0,0,1,.27-.22A.63.63,0,0,1,39.85,61.86Z"/><path class="cls-16" d="M40.57,62.51a.13.13,0,0,1,0-.06l0-.05,0,0h.13a.1.1,0,0,1,.05,0,.09.09,0,0,1,0,.05.1.1,0,0,1,0,.12.09.09,0,0,1,0,0,.1.1,0,0,1-.05,0h-.13l0,0,0,0A.13.13,0,0,1,40.57,62.51Zm0,.76a.17.17,0,0,1,0-.07l0-.05,0,0h.13l.05,0s0,0,0,.05a.19.19,0,0,1,0,.07.14.14,0,0,1,0,.06.12.12,0,0,1-.08.08l-.06,0-.07,0s0,0,0,0l0-.05A.13.13,0,0,1,40.57,63.27Z"/><path class="cls-16" d="M41.65,61.86a.58.58,0,0,1,.19,0A.38.38,0,0,1,42,62a.36.36,0,0,1,.1.14.48.48,0,0,1,0,.18.36.36,0,0,1,0,.15.61.61,0,0,1-.07.14.64.64,0,0,1-.1.13l-.11.12-.35.36.1,0h.49l.06,0a.09.09,0,0,1,0,.06v.16h-1v-.09a.11.11,0,0,1,0,0l0-.05.47-.47.1-.11.08-.11a.54.54,0,0,0,.05-.11.43.43,0,0,0,0-.11.3.3,0,0,0,0-.1.18.18,0,0,0-.05-.07l-.07,0-.09,0a.25.25,0,0,0-.15.05.25.25,0,0,0-.09.13l0,.06h-.1l-.14,0a.44.44,0,0,1,.07-.19A.49.49,0,0,1,41.3,62a.6.6,0,0,1,.16-.08A.58.58,0,0,1,41.65,61.86Z"/><path class="cls-16" d="M42.9,61.86a.54.54,0,0,1,.19,0,.53.53,0,0,1,.15.08.38.38,0,0,1,.09.13.41.41,0,0,1,0,.16.45.45,0,0,1,0,.12.31.31,0,0,1-.05.1.27.27,0,0,1-.08.07.31.31,0,0,1-.1.05.44.44,0,0,1,.21.13.41.41,0,0,1,.06.23.45.45,0,0,1,0,.2.42.42,0,0,1-.11.15.56.56,0,0,1-.17.09.64.64,0,0,1-.2,0,.6.6,0,0,1-.2,0,.36.36,0,0,1-.15-.08.43.43,0,0,1-.11-.12,1.59,1.59,0,0,1-.08-.18l.12-.05h.11s0,0,0,0a.25.25,0,0,1,0,.07l.06.06.07,0,.11,0,.11,0,.09-.06a.22.22,0,0,0,0-.08.28.28,0,0,0,0-.09.34.34,0,0,0,0-.1.12.12,0,0,0,0-.07l-.1,0-.19,0v-.19a.39.39,0,0,0,.16,0,.23.23,0,0,0,.1,0,.15.15,0,0,0,.05-.07.3.3,0,0,0,0-.1.2.2,0,0,0-.06-.16.21.21,0,0,0-.16-.06.25.25,0,0,0-.16.05.22.22,0,0,0-.08.13.1.1,0,0,1,0,.05s0,0-.06,0h0l-.14,0a.6.6,0,0,1,.06-.19.76.76,0,0,1,.11-.14.8.8,0,0,1,.16-.08A.58.58,0,0,1,42.9,61.86Z"/><path class="cls-16" d="M88.92,64.44a.3.3,0,0,1,0-.43,1.86,1.86,0,0,0,0-2.64.3.3,0,1,1,.43-.43,2.49,2.49,0,0,1,0,3.5.3.3,0,0,1-.43,0Z"/><path class="cls-16" d="M88.27,63.77a.3.3,0,0,1,0-.41,1,1,0,0,0,0-1.34.29.29,0,1,1,.41-.41,1.54,1.54,0,0,1,0,2.16.3.3,0,0,1-.41,0Z"/><polygon class="cls-16" points="85.83 62.69 87.76 61.15 87.76 64.23 85.83 62.69"/><rect class="cls-16" x="85.83" y="61.87" width="1.36" height="1.64"/><rect class="cls-17" x="102.88" y="69.42" width="14.49" height="14.49"/><rect class="cls-10" x="117.34" y="69.42" width="14.49" height="14.49"/><path class="cls-16" d="M127.62,76.67a.46.46,0,0,0-.25-.42l-2.43-2.2a.47.47,0,0,0-.63.7l1.59,1.44h-4.16a.48.48,0,0,0,0,1h4.16l-1.59,1.44a.46.46,0,0,0,0,.66.46.46,0,0,0,.66,0l2.44-2.2A.48.48,0,0,0,127.62,76.67Z"/><path class="cls-16" d="M106.86,76.67a.47.47,0,0,1,.26-.42l2.43-2.2a.47.47,0,0,1,.63.7l-1.59,1.44h4.15a.48.48,0,1,1,0,1h-4.16l1.6,1.44a.46.46,0,0,1,0,.66.44.44,0,0,1-.35.16.47.47,0,0,1-.31-.12l-2.44-2.2A.49.49,0,0,1,106.86,76.67Z"/><path class="cls-1" d="M125.61,15.57a4.13,4.13,0,1,1,4.13-4.13A4.14,4.14,0,0,1,125.61,15.57Zm0-7.26a3.13,3.13,0,1,0,3.13,3.13A3.13,3.13,0,0,0,125.61,8.31Z"/></g></g></svg>