<svg xmlns="http://www.w3.org/2000/svg" viewBox="0 0 107.39 119.02"><defs><style>.cls-1{fill:#30363d;}.cls-2{fill:#e5e8ec;}.cls-3{fill:#cdd5d7;}.cls-4{fill:#484f59;}.cls-5{fill:#ff876c;}.cls-6{fill:#ffa38f;}.cls-7{fill:#596273;}.cls-8{fill:#01bacc;}.cls-9{fill:#01c6da;}.cls-10{fill:#474f59;}.cls-11{fill:#f0ca67;}.cls-12{fill:#f4da80;}.cls-13{fill:#b7bec0;}</style></defs><title>Responsive2</title><g id="Layer_2" data-name="Layer 2"><g id="Layer_4" data-name="Layer 4"><path class="cls-1" d="M107.18,65.19V2.93A2.93,2.93,0,0,0,104.25,0H3.14A2.93,2.93,0,0,0,.21,2.93V65.19Z"/><path class="cls-2" d="M0,65.31v9a3.13,3.13,0,0,0,3.14,3.14H104.25a3.14,3.14,0,0,0,3.14-3.14v-9Z"/><path class="cls-2" d="M72.19,90.71s-.78-.38-1.67-.72-2.1-.8-2.78-1.13c-1.18-.57-1.28-.94-1.72-2.88-.49-2.11-.94-6.58-1.12-8.53H42.5c-.19,2-.64,6.42-1.12,8.53-.45,1.94-.54,2.31-1.73,2.88-.67.32-1.8.77-2.74,1.12h0l-1.65.61s-.72.4.43.46h36C72.79,91.07,72.19,90.71,72.19,90.71Z"/><path class="cls-3" d="M65.13,79.81c-.1-.93-.18-1.76-.24-2.36H42.49c-.05.6-.13,1.43-.23,2.36Z"/><polygon class="cls-4" points="19.43 65.19 41.69 65.19 82.38 0 60.12 0 19.43 65.19"/><polygon class="cls-4" points="48.05 65.19 56.17 65.19 96.86 0 88.74 0 48.05 65.19"/><rect class="cls-5" x="5.18" y="5.02" width="97.03" height="54.64"/><polygon class="cls-6" points="22.88 59.66 45.14 59.66 79.24 5.02 56.98 5.02 22.88 59.66"/><polygon class="cls-6" points="59.63 59.66 93.73 5.02 85.6 5.02 51.5 59.66 59.63 59.66"/><path class="cls-7" d="M61.59,47.75H89a1.63,1.63,0,0,1,1.63,1.63v40A1.63,1.63,0,0,1,89,91H61.59A1.64,1.64,0,0,1,60,89.41v-40A1.63,1.63,0,0,1,61.59,47.75Z"/><path class="cls-1" d="M61.59,48H89a1.38,1.38,0,0,1,1.38,1.38v40A1.39,1.39,0,0,1,89,90.79H61.58a1.38,1.38,0,0,1-1.38-1.38v-40A1.39,1.39,0,0,1,61.59,48Z"/><path class="cls-7" d="M75.59,49.68a.28.28,0,1,1-.28-.28A.27.27,0,0,1,75.59,49.68Z"/><path class="cls-7" d="M76.75,89.25a.31.31,0,0,1-.31.31H74.19a.31.31,0,0,1-.31-.31v-.61a.31.31,0,0,1,.31-.31h2.25a.31.31,0,0,1,.31.31Z"/><rect class="cls-8" x="61.95" y="51.31" width="26.73" height="35.67"/><polygon class="cls-9" points="61.95 62.67 61.95 74.09 75.97 51.31 68.94 51.31 61.95 62.67"/><polygon class="cls-9" points="61.95 80.42 79.86 51.31 77.19 51.31 61.95 76.08 61.95 80.42"/><rect class="cls-10" x="79.91" y="60.2" width="15.22" height="30.84" rx="1.91" ry="1.91"/><rect class="cls-1" x="80.2" y="60.49" width="14.64" height="30.26" rx="1.91" ry="1.91"/><path class="cls-7" d="M85.71,62.08a.26.26,0,1,1-.52,0,.26.26,0,0,1,.52,0Z"/><path class="cls-7" d="M87.66,61.19a.17.17,0,0,1-.17.17.17.17,0,0,1,0-.34A.17.17,0,0,1,87.66,61.19Z"/><path class="cls-7" d="M88.51,62.06a.12.12,0,0,1-.12.12H86.63a.12.12,0,0,1-.13-.12h0a.12.12,0,0,1,.13-.12h1.76a.12.12,0,0,1,.12.12Z"/><rect class="cls-7" x="86.51" y="88.74" width="2.06" height="0.88" rx="0.22" ry="0.22"/><polygon class="cls-1" points="80.18 65 80.18 65 79.82 65 79.82 65 79.82 63.83 79.82 63.83 80.18 63.83 80.18 63.83 80.18 65"/><polygon class="cls-1" points="80.18 68.09 80.18 68.09 79.82 68.09 79.82 68.09 79.82 66.1 79.82 66.1 80.18 66.1 80.18 66.1 80.18 68.09"/><polygon class="cls-1" points="80.18 70.44 80.18 70.44 79.82 70.44 79.82 70.44 79.82 68.55 79.82 68.55 80.18 68.55 80.18 68.55 80.18 70.44"/><rect class="cls-11" x="80.82" y="63.7" width="13.37" height="23.72"/><polygon class="cls-12" points="80.82 71.32 80.82 78.98 90.23 63.7 85.52 63.7 80.82 71.32"/><polygon class="cls-12" points="80.82 83.23 92.84 63.7 91.05 63.7 80.82 80.32 80.82 83.23"/><path class="cls-13" d="M24.72,107.39H2a.5.5,0,0,1-.5-.5V84.18a.5.5,0,0,1,.5-.5H13.29a.51.51,0,0,1,.5.5.5.5,0,0,1-.5.5H2.52v21.71h21.7V95.62a.5.5,0,0,1,.5-.5.5.5,0,0,1,.5.5v11.27A.5.5,0,0,1,24.72,107.39Z"/><path class="cls-13" d="M24.72,90.85a.5.5,0,0,1-.5-.5V84.69H18.56a.51.51,0,0,1-.5-.5.5.5,0,0,1,.5-.5h6.16a.5.5,0,0,1,.5.5v6.16A.5.5,0,0,1,24.72,90.85Z"/><path class="cls-13" d="M15,94.45a.5.5,0,0,1-.35-.15.51.51,0,0,1,0-.71l8.92-8.92a.5.5,0,0,1,.71.71L15.32,94.3A.51.51,0,0,1,15,94.45Z"/><path class="cls-9" d="M39.72,107.39H28.4a.5.5,0,0,1-.5-.5V95.57a.5.5,0,0,1,.5-.5H39.72a.5.5,0,0,1,.5.5v11.32A.5.5,0,0,1,39.72,107.39Zm-10.82-1H39.22V96.07H28.9Z"/><path class="cls-13" d="M36.57,119H28.4a.5.5,0,0,1-.5-.5v-8.17a.5.5,0,0,1,.5-.5h8.17a.5.5,0,0,1,.5.5v8.17A.5.5,0,0,1,36.57,119Zm-7.67-1h7.17v-7.17H28.9Z"/><path class="cls-5" d="M24.73,115.66H19.91a.5.5,0,0,1-.5-.5v-4.81a.5.5,0,0,1,.5-.5h4.82a.5.5,0,0,1,.5.5v4.81A.5.5,0,0,1,24.73,115.66Zm-4.32-1h3.82v-3.81H20.41Z"/></g></g></svg>