<svg xmlns="http://www.w3.org/2000/svg" viewBox="0 0 95.46 99.94"><defs><style>.cls-1{fill:#f0ca67;}.cls-2{fill:#484f59;}.cls-3{fill:#ff876c;}.cls-4{fill:#01bacc;}</style></defs><title>Solutions Puzzle</title><g id="Layer_2" data-name="Layer 2"><g id="Layer_4" data-name="Layer 4"><path class="cls-1" d="M67.09,60a1.87,1.87,0,0,0-1.53,1.68,1.91,1.91,0,0,0,.59,1.53,6.37,6.37,0,1,1-7.74-.69,1.87,1.87,0,0,0-.36-3.32L43.24,57.84,42,72.33a1.89,1.89,0,0,0,1.72,1.86,1.91,1.91,0,0,0,1.53-.59,6.37,6.37,0,1,1-.69,7.74A1.87,1.87,0,0,0,41.1,82l-1.29,14.5,38.68,3.42,3.42-38.67Z"/><path class="cls-2" d="M38.83,96.54V82.05h0a1.87,1.87,0,0,1,3.34-1,6.37,6.37,0,1,0,0-7.77,1.87,1.87,0,0,1-3.34-1h0V57.71H24.27a1.87,1.87,0,0,1-1-3.33,6.37,6.37,0,1,0-7.77,0,1.87,1.87,0,0,1-1,3.33H0V96.54Z"/><path class="cls-3" d="M47.2,31.82a6.39,6.39,0,0,0-5,2.48,1.85,1.85,0,0,1-1.47.72,1.9,1.9,0,0,1-1.88-1.75h0v9.84h0a1.9,1.9,0,0,1,1.88-1.75,1.86,1.86,0,0,1,1.47.72,6.37,6.37,0,1,0,5-10.26Z"/><path class="cls-3" d="M0,18.78V57.6H15.08l.23-.11,0,0c.07,0,.14-.09.21-.15h0a1.93,1.93,0,0,0,.31-.33l.05-.06s.05-.09.08-.14a.71.71,0,0,0,.08-.15l.05-.12.06-.2a.43.43,0,0,0,0-.11,1.86,1.86,0,0,0,0-.33,1.89,1.89,0,0,0-.72-1.47,6.37,6.37,0,1,1,7.77,0,1.86,1.86,0,0,0-.72,1.47,1.84,1.84,0,0,0,0,.33l0,.11a.76.76,0,0,0,.06.2.61.61,0,0,0,.05.12.71.71,0,0,0,.08.15l.07.14L23,57a2.42,2.42,0,0,0,.31.33h0a1.13,1.13,0,0,0,.21.15l0,0,.24.11H38.83V18.78Z"/><path class="cls-4" d="M81.08,40.58l14.38-2.2L89.61,0,51.23,5.85l2.27,14.9.15.22,0,0,.17.18h0a2,2,0,0,0,.38.26l.07,0,.14.05.16.06.13,0,.21,0h.11a1.83,1.83,0,0,0,.33,0,1.9,1.9,0,0,0,1.35-.93,6.36,6.36,0,1,1,1.17,7.68,1.9,1.9,0,0,0-1.56-.49A2.49,2.49,0,0,0,56,28l-.11,0-.19.09-.11.07-.14.1-.12.1,0,.06a1.25,1.25,0,0,0-.28.36h0l-.11.23v0a1.83,1.83,0,0,0-.08.25l2.27,14.9L71.47,42a1.88,1.88,0,0,1,1.47,3.15A6.36,6.36,0,1,0,80.62,44a1.86,1.86,0,0,1,.46-3.44Z"/></g></g></svg>