<svg xmlns="http://www.w3.org/2000/svg" viewBox="0 0 163.38 103.32"><defs><style>.cls-1{fill:#cdd5d7;}.cls-2{fill:#ff876c;}.cls-3{fill:#b7bec0;}.cls-4{fill:#e5e8ec;}.cls-5{fill:#01c6da;}.cls-6{fill:#fff;}.cls-7{fill:#484f59;}.cls-8{fill:#01bacc;}.cls-9{fill:#f0ca67;}.cls-10{fill:#f4da80;}.cls-11{fill:#ffa38f;}.cls-12{fill:#e36e54;}.cls-13{fill:#e67a61;}.cls-14{fill:#82cf8f;}</style></defs><title>Mockup</title><g id="Layer_2" data-name="Layer 2"><g id="Layer_4" data-name="Layer 4"><path class="cls-1" d="M157.39,62.85c-1.23,0-1.78-1.22-2.27-2.29s-.81-1.71-1.36-1.71-.88.67-1.35,1.71-1,2.29-2.26,2.29-1.78-1.22-2.27-2.29-.81-1.71-1.35-1.71-.89.67-1.35,1.71-1,2.29-2.27,2.29-1.78-1.22-2.26-2.29-.81-1.71-1.36-1.71-.88.68-1.35,1.71-1,2.29-2.26,2.29-1.78-1.22-2.27-2.29-.81-1.71-1.35-1.71-.89.67-1.35,1.71-1,2.29-2.27,2.29-1.77-1.22-2.26-2.29-.81-1.71-1.35-1.71-.89.67-1.35,1.71-1,2.29-2.27,2.29-1.77-1.22-2.26-2.29-.81-1.71-1.35-1.71-.89.67-1.35,1.71-1,2.29-2.27,2.29-1.77-1.22-2.26-2.29-.81-1.71-1.35-1.71v-1c1.23,0,1.78,1.22,2.26,2.29s.81,1.71,1.35,1.71.89-.68,1.36-1.71,1-2.29,2.26-2.29,1.78,1.22,2.26,2.29.81,1.71,1.35,1.71.89-.68,1.36-1.71,1-2.29,2.26-2.29,1.78,1.22,2.26,2.29.81,1.71,1.35,1.71.89-.68,1.35-1.71,1-2.29,2.27-2.29,1.78,1.22,2.26,2.29.82,1.71,1.36,1.71.88-.68,1.35-1.71,1-2.29,2.26-2.29,1.78,1.22,2.27,2.29.81,1.71,1.35,1.71.89-.68,1.35-1.71,1-2.29,2.27-2.29,1.78,1.22,2.26,2.29.82,1.71,1.36,1.71.88-.68,1.35-1.71,1-2.29,2.26-2.29,1.78,1.22,2.27,2.29.82,1.71,1.36,1.71.89-.68,1.36-1.71,1-2.29,2.26-2.29v1c-.54,0-.89.68-1.35,1.71S158.62,62.85,157.39,62.85Z"/><rect class="cls-2" x="23.64" y="11.96" width="24.82" height="2"/><rect class="cls-3" x="23.64" y="19.03" width="35.1" height="1"/><rect class="cls-3" x="23.64" y="23.53" width="35.1" height="1"/><rect class="cls-3" x="23.64" y="28.03" width="21.75" height="1"/><path class="cls-3" d="M17.6,29.36H0V11.77H17.6ZM1,28.36H16.6V12.77H1Z"/><rect class="cls-3" x="-2.94" y="20.06" width="23.47" height="1" transform="translate(-11.96 12.24) rotate(-45)"/><rect class="cls-3" x="8.3" y="8.83" width="1" height="23.47" transform="translate(-11.96 12.25) rotate(-45)"/><path class="cls-4" d="M54.42,1h64.81a.5.5,0,0,1,.5.5V93.84a.5.5,0,0,1-.5.5H54.42a.5.5,0,0,1-.5-.5V1.53A.49.49,0,0,1,54.42,1Z"/><path class="cls-3" d="M119.72,6.31V1.54a.49.49,0,0,0-.49-.5H54.42a.5.5,0,0,0-.5.5V6.31Z"/><path class="cls-1" d="M53.92,82.83v11a.5.5,0,0,0,.5.5h64.81a.49.49,0,0,0,.49-.5v-11Z"/><rect class="cls-5" x="53.92" y="23.47" width="65.8" height="24.88"/><rect class="cls-6" x="68.88" y="31.17" width="35.75" height="2.35"/><rect class="cls-6" x="65.07" y="35.81" width="43.38" height="0.59"/><rect class="cls-6" x="63.31" y="37.94" width="46.9" height="0.59"/><rect class="cls-6" x="69.06" y="40.06" width="35.4" height="0.59"/><rect class="cls-7" x="83.08" y="12.83" width="12.54" height="1.63"/><rect class="cls-7" x="78.02" y="11.57" width="3.82" height="4.16"/><rect class="cls-3" x="62.31" y="18.05" width="8.71" height="0.59"/><rect class="cls-3" x="72.39" y="18.05" width="8.71" height="0.59"/><rect class="cls-3" x="82.46" y="18.05" width="8.71" height="0.59"/><rect class="cls-3" x="92.54" y="18.05" width="8.71" height="0.59"/><rect class="cls-3" x="102.62" y="18.05" width="8.71" height="0.59"/><polygon class="cls-6" points="116.3 37.14 115.92 36.87 116.61 35.91 115.92 34.96 116.3 34.69 117.19 35.91 116.3 37.14"/><rect class="cls-6" x="114.49" y="35.68" width="2.42" height="0.47"/><polygon class="cls-6" points="57.35 37.14 56.45 35.91 57.35 34.69 57.73 34.96 57.03 35.91 57.73 36.87 57.35 37.14"/><rect class="cls-6" x="56.74" y="35.68" width="2.42" height="0.47"/><rect class="cls-5" x="59.42" y="51.73" width="16" height="16"/><path class="cls-8" d="M75.18,52V67.5H59.65V52Zm.47-.47H59.18V68H75.65V51.5Z"/><path class="cls-8" d="M59.71,67.67a.24.24,0,0,1-.17-.4L75,51.86a.23.23,0,0,1,.33.33L59.88,67.6A.23.23,0,0,1,59.71,67.67Z"/><path class="cls-8" d="M75.12,67.67A.2.2,0,0,1,75,67.6L59.54,52.19a.24.24,0,0,1,0-.33.25.25,0,0,1,.34,0L75.29,67.27a.24.24,0,0,1-.17.4Z"/><rect class="cls-5" x="78.82" y="51.73" width="16" height="16"/><path class="cls-8" d="M94.59,52V67.5H79.06V52Zm.47-.47H78.59V68H95.06V51.5Z"/><path class="cls-8" d="M79.12,67.67a.24.24,0,0,1-.17-.4L94.36,51.86a.24.24,0,0,1,.33,0,.22.22,0,0,1,0,.33L79.28,67.6A.2.2,0,0,1,79.12,67.67Z"/><path class="cls-8" d="M94.53,67.67a.23.23,0,0,1-.17-.07L79,52.19a.23.23,0,0,1,.33-.33L94.69,67.27a.22.22,0,0,1,0,.33A.2.2,0,0,1,94.53,67.67Z"/><rect class="cls-5" x="98.23" y="51.73" width="16" height="16"/><path class="cls-8" d="M114,52V67.5H98.46V52Zm.47-.47H98V68h16.47V51.5Z"/><path class="cls-8" d="M98.52,67.67a.2.2,0,0,1-.16-.07.22.22,0,0,1,0-.33l15.41-15.41a.23.23,0,1,1,.33.33L98.69,67.6A.23.23,0,0,1,98.52,67.67Z"/><path class="cls-8" d="M113.93,67.67a.2.2,0,0,1-.16-.07L98.36,52.19a.22.22,0,0,1,0-.33.24.24,0,0,1,.33,0L114.1,67.27a.24.24,0,0,1-.17.4Z"/><rect class="cls-3" x="59.18" y="71.32" width="16.13" height="0.59"/><rect class="cls-3" x="59.18" y="72.85" width="14.68" height="0.59"/><rect class="cls-3" x="59.18" y="74.37" width="16.13" height="0.59"/><rect class="cls-3" x="59.18" y="75.9" width="12.87" height="0.59"/><rect class="cls-3" x="59.18" y="69.87" width="8.71" height="0.59"/><rect class="cls-3" x="59.18" y="88.08" width="16.13" height="0.59"/><rect class="cls-3" x="59.18" y="89.22" width="14.68" height="0.59"/><rect class="cls-3" x="59.18" y="86.63" width="8.71" height="0.59"/><rect class="cls-3" x="78.59" y="71.32" width="16.13" height="0.59"/><rect class="cls-3" x="78.59" y="72.85" width="14.68" height="0.59"/><rect class="cls-3" x="78.59" y="74.37" width="16.13" height="0.59"/><rect class="cls-3" x="78.59" y="75.9" width="12.87" height="0.59"/><rect class="cls-3" x="78.59" y="69.87" width="8.71" height="0.59"/><rect class="cls-3" x="97.99" y="71.32" width="16.13" height="0.59"/><rect class="cls-3" x="97.99" y="72.85" width="14.68" height="0.59"/><rect class="cls-3" x="97.99" y="74.37" width="16.13" height="0.59"/><rect class="cls-3" x="97.99" y="75.9" width="12.88" height="0.59"/><rect class="cls-3" x="97.99" y="69.87" width="8.71" height="0.59"/><path class="cls-3" d="M114.46,88.22a1.36,1.36,0,1,1-1.36-1.37A1.36,1.36,0,0,1,114.46,88.22Z"/><path class="cls-3" d="M110.94,88.22a1.37,1.37,0,1,1-1.36-1.37A1.36,1.36,0,0,1,110.94,88.22Z"/><path class="cls-3" d="M107.42,88.22a1.37,1.37,0,1,1-1.36-1.37A1.36,1.36,0,0,1,107.42,88.22Z"/><path class="cls-6" d="M62.42,3.63a.84.84,0,1,1-.84-.84A.84.84,0,0,1,62.42,3.63Z"/><path class="cls-6" d="M59.67,3.63a.85.85,0,1,1-.84-.84A.85.85,0,0,1,59.67,3.63Z"/><path class="cls-6" d="M56.92,3.63a.85.85,0,0,1-.85.84.84.84,0,1,1,.85-.84Z"/><path class="cls-9" d="M44.72,1.27H33V94.34H44.72Z"/><path class="cls-10" d="M45.2,1.27H33.49V94.34H45.2Z"/><path class="cls-9" d="M45.2,1.27H39.68V94.34H45.2Z"/><rect class="cls-7" x="40.72" y="3.79" width="4.32" height="0.25"/><rect class="cls-7" x="42.28" y="4.95" width="2.77" height="0.25"/><rect class="cls-7" x="42.28" y="6.12" width="2.77" height="0.25"/><rect class="cls-7" x="42.28" y="7.29" width="2.77" height="0.25"/><rect class="cls-7" x="42.28" y="8.45" width="2.77" height="0.25"/><rect class="cls-7" x="40.72" y="9.62" width="4.32" height="0.25"/><rect class="cls-7" x="42.28" y="10.79" width="2.77" height="0.25"/><rect class="cls-7" x="42.28" y="11.95" width="2.77" height="0.25"/><rect class="cls-7" x="42.28" y="13.12" width="2.77" height="0.25"/><rect class="cls-7" x="42.28" y="14.29" width="2.77" height="0.25"/><rect class="cls-7" x="40.72" y="15.45" width="4.32" height="0.25"/><rect class="cls-7" x="42.28" y="16.62" width="2.77" height="0.25"/><rect class="cls-7" x="42.28" y="17.79" width="2.77" height="0.25"/><rect class="cls-7" x="42.28" y="18.95" width="2.77" height="0.25"/><rect class="cls-7" x="42.28" y="20.12" width="2.77" height="0.25"/><rect class="cls-7" x="40.72" y="21.28" width="4.32" height="0.25"/><rect class="cls-7" x="42.28" y="22.45" width="2.77" height="0.25"/><rect class="cls-7" x="42.28" y="23.62" width="2.77" height="0.25"/><rect class="cls-7" x="42.28" y="24.78" width="2.77" height="0.25"/><rect class="cls-7" x="42.28" y="25.95" width="2.77" height="0.25"/><rect class="cls-7" x="40.72" y="27.12" width="4.32" height="0.25"/><rect class="cls-7" x="42.28" y="28.28" width="2.77" height="0.25"/><rect class="cls-7" x="42.28" y="29.45" width="2.77" height="0.25"/><rect class="cls-7" x="42.28" y="30.62" width="2.77" height="0.25"/><rect class="cls-7" x="42.28" y="31.78" width="2.77" height="0.25"/><rect class="cls-7" x="40.72" y="32.95" width="4.32" height="0.25"/><rect class="cls-7" x="42.28" y="34.12" width="2.77" height="0.25"/><rect class="cls-7" x="42.28" y="35.28" width="2.77" height="0.25"/><rect class="cls-7" x="42.28" y="36.45" width="2.77" height="0.25"/><rect class="cls-7" x="42.28" y="37.62" width="2.77" height="0.25"/><rect class="cls-7" x="40.72" y="38.78" width="4.32" height="0.25"/><rect class="cls-7" x="42.28" y="39.95" width="2.77" height="0.25"/><rect class="cls-7" x="42.28" y="41.12" width="2.77" height="0.25"/><rect class="cls-7" x="42.28" y="42.28" width="2.77" height="0.25"/><rect class="cls-7" x="42.28" y="43.45" width="2.77" height="0.25"/><rect class="cls-7" x="40.72" y="44.61" width="4.32" height="0.25"/><rect class="cls-7" x="42.28" y="45.78" width="2.77" height="0.25"/><rect class="cls-7" x="42.28" y="46.95" width="2.77" height="0.25"/><rect class="cls-7" x="42.28" y="48.11" width="2.77" height="0.25"/><rect class="cls-7" x="42.28" y="49.28" width="2.77" height="0.25"/><rect class="cls-7" x="40.72" y="50.45" width="4.32" height="0.25"/><rect class="cls-7" x="42.28" y="51.61" width="2.77" height="0.25"/><rect class="cls-7" x="42.28" y="52.78" width="2.77" height="0.25"/><rect class="cls-7" x="42.28" y="53.95" width="2.77" height="0.25"/><rect class="cls-7" x="42.28" y="55.11" width="2.77" height="0.25"/><rect class="cls-7" x="40.72" y="56.28" width="4.32" height="0.25"/><rect class="cls-7" x="42.28" y="57.45" width="2.77" height="0.25"/><rect class="cls-7" x="42.28" y="58.61" width="2.77" height="0.25"/><rect class="cls-7" x="42.28" y="59.78" width="2.77" height="0.25"/><rect class="cls-7" x="42.28" y="60.95" width="2.77" height="0.25"/><rect class="cls-7" x="40.72" y="62.11" width="4.32" height="0.25"/><rect class="cls-7" x="42.28" y="63.28" width="2.77" height="0.25"/><rect class="cls-7" x="42.28" y="64.45" width="2.77" height="0.25"/><rect class="cls-7" x="42.28" y="65.61" width="2.77" height="0.25"/><rect class="cls-7" x="42.28" y="66.78" width="2.77" height="0.25"/><rect class="cls-7" x="40.72" y="67.95" width="4.32" height="0.25"/><rect class="cls-7" x="42.28" y="69.11" width="2.77" height="0.25"/><rect class="cls-7" x="42.28" y="70.28" width="2.77" height="0.25"/><rect class="cls-7" x="42.28" y="71.45" width="2.77" height="0.25"/><rect class="cls-7" x="42.28" y="72.61" width="2.77" height="0.25"/><rect class="cls-7" x="40.72" y="73.78" width="4.32" height="0.25"/><rect class="cls-7" x="42.28" y="74.95" width="2.77" height="0.25"/><rect class="cls-7" x="42.28" y="76.11" width="2.77" height="0.25"/><rect class="cls-7" x="42.28" y="77.28" width="2.77" height="0.25"/><rect class="cls-7" x="42.28" y="78.44" width="2.77" height="0.25"/><rect class="cls-7" x="40.72" y="79.61" width="4.32" height="0.25"/><rect class="cls-7" x="42.28" y="80.78" width="2.77" height="0.25"/><rect class="cls-7" x="42.28" y="81.95" width="2.77" height="0.25"/><rect class="cls-7" x="42.28" y="83.11" width="2.77" height="0.25"/><rect class="cls-7" x="42.28" y="84.28" width="2.77" height="0.25"/><rect class="cls-7" x="40.72" y="85.44" width="4.32" height="0.25"/><rect class="cls-7" x="42.28" y="86.61" width="2.77" height="0.25"/><rect class="cls-7" x="42.28" y="87.78" width="2.77" height="0.25"/><rect class="cls-7" x="42.28" y="88.94" width="2.77" height="0.25"/><rect class="cls-7" x="42.28" y="90.11" width="2.77" height="0.25"/><rect class="cls-7" x="40.72" y="91.28" width="4.32" height="0.25"/><path class="cls-2" d="M128.48.37v2h6.15v-2c0-.2-.31-.37-.68-.37h-4.79C128.79,0,128.48.17,128.48.37Z"/><path class="cls-11" d="M129.32.41V2.33h2.61V.41c0-.1-.15-.18-.33-.18h-1.95C129.47.23,129.32.31,129.32.41Z"/><path class="cls-12" d="M133.19,2.33h1.44v-2c0-.2-.31-.37-.68-.37h-.76Z"/><path class="cls-13" d="M128.4,9v77.6c.76-.07,1.35-.39,1.44-.79V9Z"/><path class="cls-2" d="M133.26,9h-3.42V85.77h0c.1.45.82.8,1.7.8s1.6-.35,1.7-.8c0,0,0,0,0,0h0Z"/><path class="cls-13" d="M133.26,85.77c.1.4.69.72,1.44.79V9h-1.44Z"/><path class="cls-4" d="M134.71,86.56c-.76-.07-1.35-.39-1.45-.79h0s0,0,0,0c-.1.45-.82.8-1.7.8s-1.6-.35-1.7-.8h0c-.09.4-.68.72-1.44.79l3.15,7.29Z"/><path class="cls-1" d="M134.71,86.56c-.76-.07-1.35-.39-1.45-.79h0s0,0,0,0c-.1.45-1.7,8.08-1.7,8.08Z"/><rect class="cls-9" x="128.43" y="2.26" width="6.23" height="6.7"/><rect class="cls-10" x="130.5" y="2.26" width="1.27" height="6.7"/><path class="cls-13" d="M132.5,91.65c-.29,0-.59,0-.89,0s-.68,0-1,0l.94,2.19Z"/><rect class="cls-10" x="128.31" y="7.58" width="0.97" height="0.4" transform="matrix(0, -1, 1, 0, 120.75, 136.56)"/><rect class="cls-10" x="129.51" y="7.29" width="0.4" height="0.97"/><rect class="cls-9" x="130.43" y="7.29" width="0.4" height="0.97"/><rect class="cls-9" x="131.34" y="7.29" width="0.4" height="0.97"/><rect class="cls-10" x="132.26" y="7.29" width="0.4" height="0.97" transform="translate(-0.01 0.14) rotate(-0.06)"/><rect class="cls-10" x="133.18" y="7.29" width="0.4" height="0.97"/><rect class="cls-10" x="134.09" y="7.29" width="0.4" height="0.97"/><rect class="cls-10" x="128.6" y="3.19" width="0.4" height="0.96"/><rect class="cls-10" x="129.23" y="3.47" width="0.96" height="0.4" transform="translate(125.91 133.38) rotate(-89.94)"/><rect class="cls-9" x="130.43" y="3.19" width="0.4" height="0.96"/><rect class="cls-9" x="131.34" y="3.19" width="0.4" height="0.96"/><rect class="cls-10" x="131.98" y="3.47" width="0.96" height="0.4" transform="translate(128.65 136.13) rotate(-89.94)"/><rect class="cls-10" x="133.18" y="3.19" width="0.4" height="0.96"/><rect class="cls-10" x="134.09" y="3.19" width="0.4" height="0.96"/><path class="cls-2" d="M27.19,64.28a3.38,3.38,0,1,1-3.38-3.37A3.38,3.38,0,0,1,27.19,64.28Z"/><rect class="cls-14" x="148.67" y="70.71" width="6.48" height="6.48" transform="translate(-7.79 129.07) rotate(-45)"/><polygon class="cls-9" points="143.55 55.09 138.99 47.19 148.12 47.19 143.55 55.09 138.99 47.19 148.12 47.19 143.55 55.09"/><rect class="cls-3" x="157.98" y="94.22" width="1" height="8.4" transform="translate(-23.17 140.93) rotate(-45.01)"/><path class="cls-3" d="M152,103.32,143.7,83.65,163.38,92l-7.9,3.45Zm-6.45-17.79L152,100.79l2.68-6.13L160.85,92Z"/></g></g></svg>