<svg xmlns="http://www.w3.org/2000/svg" viewBox="0 0 140 112.66"><defs><style>.cls-1{fill:#f3b840;}.cls-2{fill:#f4da80;}.cls-3{fill:#e5e8ec;}.cls-4{fill:#30363d;}.cls-5{fill:#cdd5d7;}.cls-6{fill:#484f59;}.cls-7{fill:#b7bec0;}.cls-8{fill:#01c6da;}.cls-9{fill:#ff876c;}</style></defs><title>Partnership</title><g id="Layer_2" data-name="Layer 2"><g id="Layer_4" data-name="Layer 4"><path class="cls-1" d="M99.44,62.34l-5.62-2.82a4.07,4.07,0,0,0-.85-.29,3.66,3.66,0,0,0-.75-.51l-10.7-5.35A15.93,15.93,0,0,1,78.74,53a14,14,0,0,1-8.33-5.2l-.09,0v.09l-6.92.72-.25,1.33a6.18,6.18,0,0,1-7.27,4.81l-2-.42a1.83,1.83,0,0,1-.25-.06l.69-3.38,1.79-8.71.1,0,0,0,4.16-.83,4.61-1v0l4.34-.87a0,0,0,0,1,0,0h0l.1,0v0l4.3.95-1.31-4.13h-.1v0l-4.17-.4-4.74-.5,0,.05L58.89,35v0L44.27,39.86l-3.41-1.59L31.28,58.64l4.13,2.14a8.4,8.4,0,0,0,3.7,5.51,3.56,3.56,0,0,1,.37-1.76L40.73,62a3.55,3.55,0,1,1,6.35,3.17l-1.25,2.5a3.53,3.53,0,0,1-1.24,1.38l2.8,1.41a3.6,3.6,0,0,1,.36-1.83l3-5.89A3.55,3.55,0,1,1,57.06,66l-3,5.9a3.48,3.48,0,0,1-1.24,1.39l2.49,1.24a3.54,3.54,0,0,1,.36-1.82l3.65-7.29a3.55,3.55,0,0,1,6.35,3.18l-3.65,7.28a3.48,3.48,0,0,1-1.24,1.39l2.49,1.24a3.44,3.44,0,0,1,.36-1.82l1.25-2.5a3.55,3.55,0,0,1,6.35,3.18L70,79.82a3.5,3.5,0,0,1-1.18,1.34l.56.2,4.7,2.35a3.55,3.55,0,0,0,4.39-5.35,8.54,8.54,0,0,0,.57-.86l3,1.5a3.55,3.55,0,0,0,3.18-6.35l-3-1.49.31-.62,7,3.52a3.55,3.55,0,0,0,3.18-6.35l-7-3.53c.08-.22.16-.44.23-.65L89,65.07a3.6,3.6,0,0,0,.85.3,4.26,4.26,0,0,0,.75.5l5.63,2.82a3.55,3.55,0,0,0,3.17-6.35Z"/><path class="cls-2" d="M69.68,72.56a3.54,3.54,0,0,0-4.76,1.58l-1.25,2.5A3.55,3.55,0,0,0,70,79.82l1.25-2.5A3.54,3.54,0,0,0,69.68,72.56Z"/><path class="cls-2" d="M45.5,60.45A3.55,3.55,0,0,0,40.73,62l-1.25,2.49a3.55,3.55,0,1,0,6.35,3.18l1.25-2.5A3.55,3.55,0,0,0,45.5,60.45Z"/><path class="cls-2" d="M64.12,63.79a3.55,3.55,0,0,0-4.76,1.58l-3.65,7.29a3.55,3.55,0,1,0,6.35,3.17l3.65-7.28A3.56,3.56,0,0,0,64.12,63.79Z"/><path class="cls-2" d="M55.47,61.19a3.54,3.54,0,0,0-4.76,1.59l-3,5.89a3.55,3.55,0,1,0,6.35,3.18l3-5.9A3.56,3.56,0,0,0,55.47,61.19Z"/><path class="cls-2" d="M108.2,35.41,85.41,43l-16-3.53v0l-.1,0h0a0,0,0,0,0,0,0L65,40.33v0l-4.61,1-4.16.83,0,0-.1,0L53.63,54.24a1.83,1.83,0,0,0,.25.06l2,.42a6.18,6.18,0,0,0,7.27-4.81l.25-1.33,6.92-.72,0-.18A12.71,12.71,0,0,0,74,51.08l0,0,.49.29.08,0c.15.09.31.17.47.25l.12.07.45.21.17.08.42.17a1.57,1.57,0,0,0,.23.09l.38.15.3.1.32.11.4.12.25.07.67.16.69.14h.09c.2,0,.41.07.61.09h.05l.65.07h0l.68,0h0l10.7,5.35a3.66,3.66,0,0,1,.75.51,4.07,4.07,0,0,1,.85.29l5.48,2.75,16.06-5.35Z"/><polygon class="cls-3" points="105.81 65.75 122.05 60.35 123.11 26.41 96.4 37.5 105.81 65.75"/><polygon class="cls-4" points="109.5 70.62 140 58.27 128.4 23.41 97.9 35.76 109.5 70.62"/><polygon class="cls-5" points="34.67 66.25 7.11 56.41 16.66 27.74 44.22 37.57 34.67 66.25"/><polygon class="cls-6" points="31.11 70.62 0 59.6 11.6 24.75 42.72 35.76 31.11 70.62"/><path class="cls-5" d="M29.89,64.08A2.06,2.06,0,1,1,27.83,62,2.06,2.06,0,0,1,29.89,64.08Z"/><path class="cls-6" d="M115.65,63.39a2.06,2.06,0,1,1-2.06-2.06A2.06,2.06,0,0,1,115.65,63.39Z"/><path class="cls-7" d="M120.39,112.66a10.94,10.94,0,1,1,7.74-3.2A10.88,10.88,0,0,1,120.39,112.66Zm0-20.89a9.95,9.95,0,1,0,7,2.91A9.89,9.89,0,0,0,120.39,91.77Z"/><path class="cls-7" d="M120.39,109.83a8.12,8.12,0,1,1,5.74-2.38A8,8,0,0,1,120.39,109.83Zm0-15.22a7,7,0,0,0-5,2.08,7.11,7.11,0,1,0,10.06,0A7,7,0,0,0,120.39,94.61Z"/><path class="cls-8" d="M44.36,19.35H37.19a.48.48,0,0,1-.36-.16.5.5,0,0,1-.14-.37A5.12,5.12,0,0,0,36.14,16a13.31,13.31,0,0,1-2.92-7.2,7.55,7.55,0,1,1,15.09,0,13.32,13.32,0,0,1-2.93,7.21,5.09,5.09,0,0,0-.52,2.76.5.5,0,0,1-.5.54Zm-6.66-1h6.15a5.15,5.15,0,0,1,.74-2.9,12.19,12.19,0,0,0,2.72-6.61,6.55,6.55,0,1,0-13.09,0,12.25,12.25,0,0,0,2.72,6.6A5.49,5.49,0,0,1,37.7,18.35Z"/><path class="cls-8" d="M44.5,21.47H37a.5.5,0,0,1,0-1H44.5a.5.5,0,0,1,0,1Z"/><path class="cls-8" d="M43.59,23.56H37.94a.5.5,0,0,1-.5-.5.5.5,0,0,1,.5-.5h5.65a.5.5,0,0,1,.5.5A.5.5,0,0,1,43.59,23.56Z"/><rect class="cls-8" x="38.43" y="8.68" width="1" height="10.02" transform="translate(-1.36 4.78) rotate(-6.9)"/><rect class="cls-8" x="37.59" y="13.19" width="10.02" height="1" transform="translate(23.9 54.34) rotate(-83.1)"/><path class="cls-8" d="M42.46,11.46a.64.64,0,0,1-.59-.4.62.62,0,0,1-.58.4.63.63,0,0,1-.59-.39.63.63,0,0,1-.58.39.64.64,0,0,1-.59-.39.62.62,0,0,1-.58.39c-.54,0-.68-.57-.78-1a2.64,2.64,0,0,0-.1-.37.34.34,0,0,0,.3.15v-1a.63.63,0,0,1,.58.39.63.63,0,0,1,.58-.39.64.64,0,0,1,.59.39.62.62,0,0,1,.58-.39.64.64,0,0,1,.59.39.63.63,0,0,1,1.17,0,.63.63,0,0,1,.59-.39v1a.37.37,0,0,0,.3-.15,2.45,2.45,0,0,0-.11.37C43.14,10.89,43,11.46,42.46,11.46Z"/><path class="cls-9" d="M64.59,26.66a1,1,0,0,1-.71-.3l-6.09-6.09a1,1,0,0,1,0-1.41l6.09-6.09a1,1,0,1,1,1.42,1.41l-5.38,5.38L65.3,25a1,1,0,0,1,0,1.41A1,1,0,0,1,64.59,26.66Z"/><path class="cls-9" d="M60.16,20.56a1,1,0,0,1,0-2H82.23a1,1,0,0,1,0,2Z"/><path class="cls-8" d="M76.15,14.18a1,1,0,0,1-.71-.29,1,1,0,0,1,0-1.41l5.38-5.39L75.44,1.71a1,1,0,0,1,0-1.42,1,1,0,0,1,1.41,0l6.09,6.09a1,1,0,0,1,0,1.42l-6.09,6.09A1,1,0,0,1,76.15,14.18Z"/><path class="cls-8" d="M58.5,8.09a1,1,0,0,1,0-2H80.58a1,1,0,0,1,0,2Z"/><path class="cls-9" d="M135.72,85.52h-37a1,1,0,0,1,0-2h37a1,1,0,0,1,0,2Z"/><rect class="cls-7" x="63.91" y="101.79" width="71.81" height="1"/><rect class="cls-7" x="0.22" y="77.97" width="44.06" height="1"/><rect class="cls-7" x="0.22" y="83.08" width="32.72" height="1"/><path class="cls-8" d="M41.7,97.47a2.87,2.87,0,0,1-2.23-1.16,1.73,1.73,0,0,0-3,0,2.71,2.71,0,0,1-4.45,0,1.73,1.73,0,0,0-3,0,2.7,2.7,0,0,1-4.44,0,1.74,1.74,0,0,0-3,0,2.7,2.7,0,0,1-4.44,0,1.9,1.9,0,0,0-1.49-.84v-1A2.86,2.86,0,0,1,18,95.63a1.74,1.74,0,0,0,3,0,2.7,2.7,0,0,1,4.44,0,1.73,1.73,0,0,0,3,0,2.71,2.71,0,0,1,4.45,0,1.73,1.73,0,0,0,3,0,2.71,2.71,0,0,1,4.45,0,1.74,1.74,0,0,0,3,0,2.88,2.88,0,0,1,2.23-1.16v1a1.9,1.9,0,0,0-1.5.84A2.83,2.83,0,0,1,41.7,97.47Z"/><path class="cls-8" d="M6.66,101.78,1,96.16l5.62-5.62,5.62,5.62ZM2.45,96.16l4.21,4.21,4.21-4.21L6.66,92Z"/><path class="cls-4" d="M132.07,96.77c-1.23,0-1.79-1.22-2.28-2.29s-.82-1.71-1.37-1.71-.9.68-1.37,1.71-1,2.29-2.28,2.29-1.78-1.22-2.27-2.29-.82-1.71-1.37-1.71-.9.68-1.37,1.71-1,2.29-2.27,2.29-1.79-1.22-2.28-2.29-.82-1.71-1.37-1.71-.9.68-1.37,1.71-1,2.29-2.27,2.29-1.79-1.22-2.28-2.29-.82-1.71-1.37-1.71-.9.68-1.37,1.71-1,2.29-2.27,2.29-1.79-1.22-2.28-2.29-.82-1.71-1.36-1.71-.9.68-1.37,1.71-1.05,2.29-2.28,2.29-1.78-1.22-2.27-2.29-.82-1.71-1.37-1.71-.9.68-1.37,1.71-1,2.29-2.27,2.29-1.79-1.22-2.28-2.29-.81-1.71-1.36-1.71v-1c1.23,0,1.78,1.22,2.27,2.29s.82,1.71,1.37,1.71.89-.67,1.36-1.71,1-2.29,2.28-2.29,1.79,1.22,2.28,2.29.81,1.71,1.36,1.71.9-.67,1.37-1.71,1-2.29,2.28-2.29,1.78,1.22,2.27,2.29.82,1.71,1.37,1.71.89-.67,1.36-1.71,1-2.29,2.28-2.29,1.79,1.22,2.28,2.29.82,1.71,1.37,1.71.89-.67,1.36-1.71,1-2.29,2.28-2.29,1.79,1.22,2.28,2.29.82,1.71,1.37,1.71.89-.67,1.36-1.71,1.05-2.29,2.28-2.29,1.79,1.22,2.28,2.29.82,1.71,1.36,1.71.9-.67,1.37-1.71,1-2.29,2.28-2.29,1.79,1.22,2.28,2.29.82,1.71,1.37,1.71.9-.67,1.37-1.71,1.05-2.29,2.28-2.29v1c-.55,0-.9.68-1.37,1.71S133.31,96.77,132.07,96.77Z"/><path class="cls-9" d="M95.83,13.79a2.56,2.56,0,0,1-2.56-2.56V8.41a2.57,2.57,0,0,1,5.13,0v2.82A2.57,2.57,0,0,1,95.83,13.79Zm0-6.94a1.56,1.56,0,0,0-1.56,1.56v2.82a1.57,1.57,0,0,0,3.13,0V8.41A1.56,1.56,0,0,0,95.83,6.85Z"/><path class="cls-9" d="M104.45,20.82a2.57,2.57,0,0,1-2.56-2.57V15.44a2.56,2.56,0,1,1,5.12,0v2.81A2.57,2.57,0,0,1,104.45,20.82Zm0-7a1.57,1.57,0,0,0-1.56,1.57v2.81a1.56,1.56,0,1,0,3.12,0V15.44A1.57,1.57,0,0,0,104.45,13.87Z"/><path class="cls-9" d="M107.21,11a.5.5,0,0,1-.5-.5V6.92h-3.57a.5.5,0,0,1-.5-.5.5.5,0,0,1,.5-.5h4.07a.5.5,0,0,1,.5.5v4.07A.5.5,0,0,1,107.21,11Z"/><path class="cls-9" d="M93.07,21.06a.5.5,0,0,1-.35-.85L106.3,6.62a.51.51,0,0,1,.71,0,.5.5,0,0,1,0,.71L93.42,20.91A.47.47,0,0,1,93.07,21.06Z"/></g></g></svg>