<svg xmlns="http://www.w3.org/2000/svg" viewBox="0 0 138.28 135.57"><defs><style>.cls-1{fill:#01c6da;}.cls-2{fill:#01bacc;}.cls-3{fill:#cdd5d7;}.cls-4{fill:#d1ecfb;}.cls-5{fill:#e5e8ec;}.cls-6{fill:#ff876c;}.cls-7{fill:#b7bec0;}.cls-8{fill:#82cf8f;}.cls-9{fill:#fff;}.cls-10{fill:#484f59;}.cls-11{fill:#afd7a6;}.cls-12{fill:#7ac286;}.cls-13{fill:#30363d;}</style></defs><title>Updates</title><g id="Layer_2" data-name="Layer 2"><g id="Layer_4" data-name="Layer 4"><path class="cls-1" d="M34.82,24.08A34.81,34.81,0,1,0,69.63,58.89,34.86,34.86,0,0,0,34.82,24.08Z"/><path class="cls-2" d="M36.35,24.12a34.81,34.81,0,0,1-15,66.21c-.51,0-1,0-1.53,0A34.81,34.81,0,1,0,36.35,24.12Z"/><path class="cls-3" d="M68.12,68.35c-.46,0-1.05.23-1.06.39s-.64.44-.85.52a2.73,2.73,0,0,0-.71.95c-.08.21-.6.15-.79.23s-.59.4-.59.59-.11.17-.23,0l-.26.26-.29.33a2.73,2.73,0,0,1-.93,1.27c-.2.05-.24,1-.24,1.37a1.78,1.78,0,0,0,.33,1l0,.31.07.59a1,1,0,0,0,.35,1,4.8,4.8,0,0,0,1.29-.23,2.21,2.21,0,0,0,.47-.19,35.34,35.34,0,0,0,3.59-8.31Z"/><path class="cls-3" d="M10.64,69.25c-.05.09.57.73.82,1a6.11,6.11,0,0,1,.85,1.6,2.58,2.58,0,0,1,0,1c0,.13.12.42.14.54a9.57,9.57,0,0,0-.13,1.56c.09.41-.47,1.7-.46,2.33s.3,1.48.42,1.41.16.58,0,.66-.42.58-.31.61,0,.53,0,.73.2,1.53.23,1.86a9.86,9.86,0,0,0,.61,1.4c.1.28.2.8.24.87s.09.16.09.17a2.94,2.94,0,0,1,.5.22,3.13,3.13,0,0,0,1.1,0c.24-.06,0-.28-.09-.4s-.2-.71-.33-.77-.18-.81-.07-1,.56-.43.6-.57.07-.8-.05-.89,0-.88-.06-1.27.68-.75.73-1.06.88-.65,1.07-.8a2.05,2.05,0,0,0,.27-1.25c-.09-.19.3-.34.49-.34s.37-.13.44-.13.28-.4.39-.49.35-1,.56-1.19a1.62,1.62,0,0,0,.38-.89,2.7,2.7,0,0,1,.43-.82,4.62,4.62,0,0,1,1-.56A6.43,6.43,0,0,0,20.92,71a11,11,0,0,1,.3-1.21c0-.14.27-.27.31-.32a8,8,0,0,1,.36-.75,3.58,3.58,0,0,0,.56-.81,5.61,5.61,0,0,1,.15-.69v-.8c-.14-.38-.56-.85-.66-.74s-.6-.34-.84-.44a5.57,5.57,0,0,0-1-.16c-.16,0-.7-.44-.94-.52s-.85-.19-1-.26-.27-1-.76-1.29A5.49,5.49,0,0,1,16,61.79c-.1-.26-1.05-.8-1.35-1a1.16,1.16,0,0,0-.78-.14c-.06.06-.43-.49-.62-.65s-.76-.29-.79-.15-.4.07-.49,0-.38,0-.52.09-.61.77-.82,1-.48-.17-.63-.23a1.69,1.69,0,0,0-.84.21C9,61,8.63,60.1,8.71,59.7s-.36-1.2-.7-1.22-.44-.86-.37-1.17-.62-.5-.78-.52-.6.41-.67.62-1.62-.28-1.43-1.21a4.31,4.31,0,0,1,1.09-2,2.83,2.83,0,0,1,1.39-.05.38.38,0,0,0,.46,0,2.81,2.81,0,0,1,1.08.11c.24.1.59,1,.84,1.14s.34-.6.38-.77a1.84,1.84,0,0,0-.18-.75,2.56,2.56,0,0,1,.78-1.44,1.82,1.82,0,0,0,.74-.94c0-.11.3-.2.39-.24s0-1,.14-1.16A4,4,0,0,1,13,49.35a.89.89,0,0,0,.31-.78c-.08-.1.58-.66.92-.77s.64.19.56.24.54-.28.74-.41,0-.59-.15-.71-.06-.63.12-.67.34-.47.3-.57.75.08,1.06-.15.09.54-.13.86.16.6.3.54.3.17.33.26.34-.1.54,0,.32-.27.34-.44-.49-.52-.57-.73a14,14,0,0,1-.12-1.62c0-.24-.33-.63-.44-.56s-.31-.63-.48-.78a.85.85,0,0,1-.2-.6c0-.11-.57-.72-.71-1s-.33-.22-.35-.09-.41.15-.58.13-.3-.65-.3-.89-.75-.29-.87-.48-.61-.1-.69-.24a.73.73,0,0,0-.59-.2c-.08,0,0,1.77-.12,2.24s-.48.88-.63.87,0,.33.05.3-.29.51-.34.87-.41,0-.46-.34-.42-.76-.48-.65-.31-.13-.42-.06-.77-.39-1-.54-.42-1-.57-1,0-.17,0-.29.52-.6.68-.8a12.18,12.18,0,0,1,1-1.1,1,1,0,0,0,.37-.67A6.87,6.87,0,0,1,11.51,38c.28-.09.52-.86.56-1.08a1,1,0,0,0-.3-.69c-.13-.05.38-.08.55,0s.69-.16.9,0,.63.35.93.54l-.07.57-.12,1c-.8.33-1,.91-.75.9a6.4,6.4,0,0,1,1.92.81c.36.26.47-.37.58-.59a1.5,1.5,0,0,0,0-.94c-.09-.12.42-.08.56.06s.3-.14.42-.19.16-.57.22-.68-.24-.21-.25-.35-.58-.38-.77-.47-.24-.48-.14-.55-.07-.57-.16-.75-.69-.3-.89-.3-.4-.46-.52-.53a2.89,2.89,0,0,0-1.08-.09c-.19,0-.53-.55-.86-.37s-.65-.21-.8-.29-.9.73-.89,1.3A1.59,1.59,0,0,0,11,36.34c.12,0,0,.53-.16.68s-.45-.16-.33-.29-.32-.72-.48-1a1.88,1.88,0,0,0-.77-.44l-.45.51a1.23,1.23,0,0,1,.06.68c-.11.35-.41.4-.42.25s-.15-.11-.33-.14A34.63,34.63,0,0,0,.25,54.83a2.25,2.25,0,0,1,.4.58c.1.3.63.5.73.57s.14-.58.06-.75.13-.27.13-.15a4.31,4.31,0,0,0,.66.9c.17.21.34,1.53.5,1.82a6.35,6.35,0,0,0,2.19,1,2.64,2.64,0,0,1,1.21.81c.09.16.75.24.89.31s.48.51.62.6a.8.8,0,0,1,.24.42c0,.07.87.4,1.08.63a.46.46,0,0,0,.62.08c.07-.1.24.46.33.65A1.2,1.2,0,0,1,10,63c-.07.07-.19.94-.33,1.12a4.37,4.37,0,0,0-.4,1.69,2.08,2.08,0,0,0,.65.84.21.21,0,0,1,0,.37c-.14,0-.08,1.22.25,1.4A1.21,1.21,0,0,1,10.64,69.25Z"/><path class="cls-3" d="M14.73,48h0Z"/><path class="cls-3" d="M12.36,33.36a3.42,3.42,0,0,0,1.15-.3.67.67,0,0,0,0-.48h.21c.15,0,.42-.87.59-1.08a8.73,8.73,0,0,1,1.34-.64,9.63,9.63,0,0,1,.92-.67.86.86,0,0,0,.42-.59c0-.09.65-.51.91-.61s.4-.42.3-.44-1.52.76-2.85,1.52A35.43,35.43,0,0,0,11,33.51C11.44,33.48,12.08,33.41,12.36,33.36Z"/><path class="cls-3" d="M37.54,76.69A13.7,13.7,0,0,0,39,75.07a4,4,0,0,0,.48-1.27,1.24,1.24,0,0,1,.57-.52c.14,0,.58-1.92,1-2.33a6.79,6.79,0,0,0,.82-3.11,9.57,9.57,0,0,1,.35-2.4,3.2,3.2,0,0,1,.74-1,24.09,24.09,0,0,0,1.42-2.05,4.43,4.43,0,0,0,.54-1.88c-.06-.26-.72-.44-.85-.32a2.22,2.22,0,0,1-.95.24c-.2,0-.66-1.08-1-1.3s-.54-1.45-.7-1.68-.63-.82-.77-1-.17-.78-.2-1,.28.12.33.38a12.91,12.91,0,0,0,1,1.66c.23.36.83,1.48,1,1.83s1.49.18,1.93,0a2.85,2.85,0,0,0,1-.67c0-.12.71-.44.9-.6s.36-1,.49-1.08-.1-.9-.25-1.13a1.21,1.21,0,0,0-1-.32c-.15.09-.44-.51-.56-.74s-.63-.49-.68-.65.13-.39.22-.44a4.52,4.52,0,0,1,1.35,1,6.53,6.53,0,0,1,.65,1.08,1.4,1.4,0,0,0,1,0,.28.28,0,0,1,.44.08l.24-.05.85-.13a1.9,1.9,0,0,1,.51.9.79.79,0,0,0,.41.47c.16,0,.28.6.33.73s.53,1,.63,1.32a8,8,0,0,0,.61,1.21,2.94,2.94,0,0,1,.18.86.64.64,0,0,0,.51.42c.19,0,.58-1.23.67-1.68a1.25,1.25,0,0,1,.49-.83c.09,0,.16-.25.16-.35s.49-.08.53-.21.19-.93.36-1a6.55,6.55,0,0,1,1-.61c.22-.08.78.4.9.63a1.83,1.83,0,0,1,.19.89c0,.09.3.58.59.58s.39.37.4.51.4.54.48.71a1.47,1.47,0,0,1,0,.78,2.93,2.93,0,0,0,0,.92,8.59,8.59,0,0,0,1.32,1.39c.34.27.5-.58.32-.84s-.77-.88-.91-1.07A2.28,2.28,0,0,1,59,60.26c.05-.21.52.12.72.26a1.46,1.46,0,0,1,.45.6c0,.11,1.23-.58,1.28-1.32A7.45,7.45,0,0,1,62,58c0-.2-.12-.46-.23-.47s.19-.57.54-.56,1.16-.91,1.35-1.28a3,3,0,0,1,.64-.71,6.2,6.2,0,0,0,.37-1.26,3.71,3.71,0,0,0-.23-1.1A3.52,3.52,0,0,0,64,51.9a1.63,1.63,0,0,1-.1-.73c.05-.09.36-.19.39-.28s.39-.46.36-.63.22.22.39.36.33,1,.53,1.12,1-.94.92-1.61a2,2,0,0,1,.43-1.6,4.3,4.3,0,0,0,.78-1A34.75,34.75,0,0,0,59.14,34H59l-.3-.06c-.5-.11-.79-.64-.7-.77s0-.12,0-.23l-.86-.74h-.63a2.54,2.54,0,0,1-1.06-.34c-.12-.11-.51.1-.53.32s-.71.31-.77.48a.36.36,0,0,1-.49.08c-.07-.09-.7.23-1,.27a6,6,0,0,0-1,.36,1.64,1.64,0,0,0-.52.53,1.53,1.53,0,0,1-.59.41c-.13,0-.1.64.06.72s-.31-.07-.52-.18-.44.25-.51.38-.26-.08-.25-.25-.52-.32-.59-.18-.44-.05-.59-.12-.81.6-1.05.84a2.86,2.86,0,0,1-1.62.35c-.22-.09-.43.51-.25.55s-.47,0-.83,0a5.62,5.62,0,0,0-1.66.64.27.27,0,0,1-.45-.19c0-.14-.4-.27-.52-.31s-.35.78-.56.94-.46-.64-.95-.78-1.25-.6-1.47-.66a2.91,2.91,0,0,1-.78-.64,2.09,2.09,0,0,0-1-.25,3.18,3.18,0,0,0-1,.52c-.18.15-.44.12-.53.17s-.81.78-1.1,1a9.17,9.17,0,0,0-.94,1.42.69.69,0,0,1-.49.28c-.1,0-.18.26-.18.36s-.84.53-.93.91a8.74,8.74,0,0,0,.09,1.57c0,.31.31.93.54.94s.11.53.06.67.14.31.13.43-.59.3-.77.37a1.33,1.33,0,0,0-.51.62c0,.13-.6.22-.78.41.05-.13.11-.31.16-.41a.66.66,0,0,0-.13-.63c-.09-.08-.13-1.09-.27-1.3a4.66,4.66,0,0,0-.59-.66c-.08-.07.06-.34.12-.45s-.48-.18-.62-.1S29,42.4,29,42.67a.88.88,0,0,0,.35.71c.08,0,.05.52-.12.54s-.36.73-.27.9-.13.49-.23.56.7,0,1.07,0,.66.16.62.19-.71.13-.83.29-.57.47-.66.59.15.39.34.38.42.66.57.79.09.48,0,.57-1-.07-1.32,0-.78.82-.81,1.09a6.62,6.62,0,0,0,.1,1.29c0,.21.76.35.91.46s.84,0,1,.07.61-.71.7-1.06.83-1,1-1.25.95-.22,1.14-.34.09.6.18,1,.85.35.74,0,.08-.54.1-.4.77.43.91.65.09.65-.07.65-.16.49,0,.55.4-.57.58-.66.34-.47.25-.5.15-.37.26-.26a4.36,4.36,0,0,0-.7-1.05c-.31-.32-.09-.18.49.31l.4.55c.07.1.18.41.25.53L36,50a3.77,3.77,0,0,1,.15.88.63.63,0,0,0,.5.42c.19,0,.34.09.3.09s.13.39.31.39.27-.48.09-.49-.17-.72-.19-1,.14-.55.2-.55,0,.63,0,.77a2,2,0,0,0,.17.64l.2.15.44.34c.63-.19,1.47,0,1.44.08s.47.16.5,0,.05,0,.05.15-.41.7-.48,1-1.52.09-2.15,0-1.55.16-1.62.35-1.05-.43-1.5-.62-.8-.87-.89-1,.08-.31,0-.44S32.5,51,32.2,51.06s-1.83.27-2.19.43a2,2,0,0,1-1.08,0c-.17,0-.58.47-.78.56a2.76,2.76,0,0,0-.59,1.58l-.27.54-.18.35a8.1,8.1,0,0,0-1.24,1.93,12.67,12.67,0,0,0-.29,2.73,8.62,8.62,0,0,0,.7,2.31,5.66,5.66,0,0,0,1.4,1.36,5.25,5.25,0,0,0,1.67.21,1,1,0,0,0,.84-.7l.49,0,.23,0c0,.27.74.49.91.59a1.66,1.66,0,0,0,.8,0c.14,0,.3,1.24.2,1.61a7.17,7.17,0,0,0,.35,2.05c.11.39.55,1.46.6,1.84a16.48,16.48,0,0,1-.32,2.1,8.24,8.24,0,0,0,.72,2.13,7.09,7.09,0,0,1,.29,1.56c0,.22.66,1.5.81,2S37.09,77,37.54,76.69Z"/><path class="cls-3" d="M66.23,60.88c0,.1.46-.23.71-.27s.41-.71.22-.76-.45-.57-.59-.63-.42.22-.41.42-.45.29-.54.46-.09.29,0,.28S66.19,60.79,66.23,60.88Z"/><path class="cls-3" d="M65.72,64.54c.13-.05,0-.71-.27-.77s-1,.88-.85,1.42.29.5.36.38.51.08.63.12.13-.09,0-.28A1,1,0,0,1,65.72,64.54Z"/><path class="cls-3" d="M64.29,63.89c0-.23.08-1,.12-1.12s-.4-.58-.62-.66-.92,1.45-1.43,1.72a1.43,1.43,0,0,0-.55,1.41c.13.22,1.18.33,1.36.49s.4,0,.5,0,.08-.1,0-.13.37-.46.43-.73A8.52,8.52,0,0,0,64.29,63.89Z"/><path class="cls-3" d="M61.44,66.43c-.4-.15-.87.08-.9.23s1.52.4,2,.55.83.18.72.09S61.83,66.58,61.44,66.43Z"/><path class="cls-3" d="M64.59,56.3c.13-.17-.17-1-.32-.8s0,.65,0,.82S64.47,56.47,64.59,56.3Z"/><path class="cls-3" d="M65.53,58.05c.1-.21-.11-.44-.45-.51s-.28.94-.14,1.07S65.44,58.26,65.53,58.05Z"/><path class="cls-3" d="M67.29,64.33c.4.28,1.3.15,1.33-.4C68.22,63.67,67.25,63.71,67.29,64.33Z"/><path class="cls-3" d="M67.07,51.9a.55.55,0,0,0-.2.54h-.08c-.13,0-.14.54,0,.63s.48-.42.66-.54a1,1,0,0,1,.58-.15,1.55,1.55,0,0,0,.7-.21.55.55,0,0,0,.19-.24c-.07-.38-.17-.76-.26-1.15l-.45.33C68,51.27,67.29,51.75,67.07,51.9Z"/><path class="cls-3" d="M57.87,62.59Z"/><path class="cls-3" d="M60.38,64.93a4.38,4.38,0,0,0-1.08-1.25l-.17-.27-.18-.3c-.16-.34-.66-.6-.7-.7s-.21.29-.38.18l.54.38c.47.34,1.37,2.6,1.57,2.76S60.52,65.26,60.38,64.93Z"/><path class="cls-3" d="M53.19,61.26c-.13.26.66.8.73.68a1.51,1.51,0,0,0-.25-.89C53.53,60.91,53.32,61,53.19,61.26Z"/><path class="cls-3" d="M42.67,73.38c0,.26.58.48.74.43a3,3,0,0,0,.66-1.09,5.6,5.6,0,0,0,.11-.86c0-.12.07-.39.14-.42a1.57,1.57,0,0,0,.22-.62,19.63,19.63,0,0,0-.34-2c0-.25-.29.13-.37.39s-.78.77-.94,1a2.12,2.12,0,0,0-.27,1.07,1.62,1.62,0,0,1-.14.76A7.65,7.65,0,0,0,42.67,73.38Z"/><path class="cls-3" d="M17,83.27h.49C17.57,82.75,17,82.84,17,83.27Z"/><path class="cls-3" d="M29.76,29.4a1.54,1.54,0,0,1-.81-.17,1.92,1.92,0,0,0-1.09-.08c-.22.09-.07-.55.24-.62s0-.51-.28-.51a11.87,11.87,0,0,0-1.35-.08c-.19,0-.57-.14-.71-.16a13.39,13.39,0,0,1-1.59.27,11.18,11.18,0,0,0-1.85.1.8.8,0,0,0-.4.72c0,.17-1.11.17-1.46.18a11.46,11.46,0,0,0-2.79.69c-.5.27-.89,1-.72,1s-.29.41-.56.5-.91.14-1.06.29.16.25.23.36.23-.09.4,0,.73.13.88.19-.48.18-.77.2-.23.6,0,.68.86.16.92.06.73.11,1,.15.52.78.61.95a2.5,2.5,0,0,1,.1.9c0,.17.53.47.63.36s.07.26-.16.25-.08.61.2.71.08.48-.07.6-.07.49-.23.63.57,1.4.56,2,.41,1.19.56,1.19.7.13.76.27.34-.1.44-.21a4.29,4.29,0,0,0,.48-.69,16.22,16.22,0,0,0,.59-1.73c0-.14.66-.05.8-.12a8,8,0,0,0,.66-.48c.11-.1,1-.47,1.23-.64s.64-.92.82-1.08-.1-.11-.33-.26a.25.25,0,0,1-.06-.41c.07-.08.77.12,1,.21s.71-.24.53-.37-.09-.13,0-.07.18-.44.09-.52.71-.69.56-1.24.23-1.13.44-1.14.16-.63-.1-.69,0-.11.08-.2a1.25,1.25,0,0,0,.16-.75c-.05-.11.4-.23.48-.36a2.2,2.2,0,0,1,.79-.42C29.86,29.87,30,29.38,29.76,29.4Z"/><path class="cls-3" d="M34.3,29.86c-.25-.08-.76.19-.69.35s-.41-.2-.74,0-.42.75-.27.83.26.54.27.62.64,0,.8-.11.14.47,0,.64.06.48.24.51.42.44.6.44.5-.71.57-1,.68-.06,1,0,.38-1,.07-1.13-.67-.08-.8-.2a1,1,0,0,0-.48-.25C34.68,30.57,34.54,29.94,34.3,29.86Z"/><path class="cls-3" d="M36.73,30.36a1.68,1.68,0,0,0,1.16-.45c.12-.11-1.36-.41-1.93-.43s-1,.06-1,.17A5.57,5.57,0,0,0,36.73,30.36Z"/><path class="cls-3" d="M27.76,43.65c-.12-.06-.2.43-.16.62s.47.16.67.13a.38.38,0,0,0,.34-.35c0-.16-.29-.88-.4-.88S27.9,43.7,27.76,43.65Z"/><path class="cls-3" d="M29.22,38c-.1-.18-.87-.16-1.06-.17a2.13,2.13,0,0,1-.87-.33c-.11-.12-.19.48-.37.56s.09.19.16.13,0,.3-.08.43.51.22.58.41a.49.49,0,0,0,.54.28c.23,0,.7-.28.86-.3S29.32,38.18,29.22,38Z"/><path class="cls-3" d="M45.4,33.59c.26-.27,1.35-.63,1.48-.9a.35.35,0,0,0-.19-.5c-.11,0-.24.14-.27.18s-1.27.34-1.66.53a4.48,4.48,0,0,0-1,.63,14.7,14.7,0,0,0-.52,1.54c-.09.14.42.64.64.78a.81.81,0,0,0,.62,0,3.11,3.11,0,0,0-.23-1.19C44.16,34.4,45.14,33.85,45.4,33.59Z"/><path class="cls-3" d="M44.06,30.36c.41.41.64-.18,1.09-.13C45.15,29.4,44,29.69,44.06,30.36Z"/><path class="cls-3" d="M52.06,30.51c0,.16,1.14.28,1.47.22s-.07-.58-.56-.55S52.07,30.36,52.06,30.51Z"/><path class="cls-3" d="M10.41,39c-.12.12,0,.68.21.7s.6-.85.89-.68.47.24.42.15A9.39,9.39,0,0,0,11,38.7C10.88,38.64,10.53,38.93,10.41,39Z"/><path class="cls-3" d="M13.35,58.14c0,.1.5.08.58-.07s0-.28-.09-.28S13.35,58.05,13.35,58.14Z"/><path class="cls-3" d="M11.12,57.32c.24,0,.13.34.18.48s.64.25.75.35.41-.18.64-.15-.07-.8-.46-.77-.69-.35-.78-.4a5.46,5.46,0,0,1-.67-.42,5.57,5.57,0,0,0-1.44-.18,1.08,1.08,0,0,0-.75.44c-.06.12.53.2.69.11a1.66,1.66,0,0,1,1.1.28A.87.87,0,0,0,11.12,57.32Z"/><path class="cls-3" d="M10.07,58.14c0,.1.51,0,.63,0s.12-.08,0-.18S10.07,58.05,10.07,58.14Z"/><path class="cls-3" d="M10.43,55.54c-.13-.06-.24.15-.24.25a.17.17,0,0,0,.16.18C10.44,56,10.56,55.59,10.43,55.54Z"/><path class="cls-3" d="M11.49,55.62c0-.1-.26-.18-.32-.18s-.12.17-.11.37S11.53,55.71,11.49,55.62Z"/><path class="cls-3" d="M12.25,56.8c.21-.1.23-.35.11-.34s-.35-.35-.48-.4-.24.22-.24.34.08.2.17.18S12.05,56.89,12.25,56.8Z"/><path class="cls-3" d="M68.81,64.75c-.1,0-.62.11-.69,0S68,65,67.85,65s0,.32.11.23.6.21,1,.46q.12-.58.21-1.17A3.52,3.52,0,0,0,68.81,64.75Z"/><path class="cls-4" d="M13.51,32.65s-.18.07-.11.14S13.57,32.73,13.51,32.65Z"/><path class="cls-4" d="M17.37,44.15s-.18.06-.12.13S17.43,44.21,17.37,44.15Z"/><path class="cls-5" d="M21.89,68.75a3.58,3.58,0,0,0,.56-.81,5.61,5.61,0,0,1,.15-.69v-.8c-.14-.38-.56-.85-.66-.74s-.6-.34-.84-.44a5.57,5.57,0,0,0-1-.16c-.16,0-.7-.44-.94-.52s-.85-.19-1-.26-.27-1-.76-1.29A5.49,5.49,0,0,1,16,61.79c-.1-.26-1.05-.8-1.35-1a1.16,1.16,0,0,0-.78-.14c-.06.06-.43-.49-.62-.65s-.76-.29-.79-.15-.4.07-.49,0-.38,0-.52.09-.61.77-.82,1-.48-.17-.63-.23a1.69,1.69,0,0,0-.84.21C9,61,8.63,60.1,8.71,59.7s-.36-1.2-.7-1.22-.44-.86-.37-1.17-.62-.5-.78-.52-.6.41-.67.62-1.62-.28-1.43-1.21a4.31,4.31,0,0,1,1.09-2,2.83,2.83,0,0,1,1.39-.05.38.38,0,0,0,.46,0,2.81,2.81,0,0,1,1.08.11c.24.1.59,1,.84,1.14s.34-.6.38-.77a1.84,1.84,0,0,0-.18-.75,2.56,2.56,0,0,1,.78-1.44,1.82,1.82,0,0,0,.74-.94c0-.11.3-.2.39-.24s0-1,.14-1.16A4,4,0,0,1,13,49.35a.89.89,0,0,0,.31-.78c-.08-.1.58-.66.92-.77s.64.19.56.24.54-.28.74-.41,0-.59-.15-.71-.06-.63.12-.67.34-.47.3-.57.75.08,1.06-.15.09.54-.13.86.16.6.3.54.3.17.33.26.34-.1.54,0,.32-.27.34-.44-.49-.52-.57-.73a14,14,0,0,1-.12-1.62c0-.24-.33-.63-.44-.56s-.31-.63-.48-.78a.85.85,0,0,1-.2-.6c0-.11-.57-.72-.71-1s-.33-.22-.35-.09-.41.15-.58.13-.3-.65-.3-.89-.75-.29-.87-.48-.61-.1-.69-.24a.73.73,0,0,0-.59-.2c-.08,0,0,1.77-.12,2.24s-.48.88-.63.87,0,.33.05.3-.29.51-.34.87-.41,0-.46-.34-.42-.76-.48-.65-.31-.13-.42-.06-.77-.39-1-.54-.42-1-.57-1,0-.17,0-.29.52-.6.68-.8a12.18,12.18,0,0,1,1-1.1,1,1,0,0,0,.37-.67A6.87,6.87,0,0,1,11.51,38c.28-.09.52-.86.56-1.08a1,1,0,0,0-.3-.69c-.13-.05.38-.08.55,0s.69-.16.9,0,.63.35.93.54l-.07.57-.12,1c-.8.33-1,.91-.75.9a6.4,6.4,0,0,1,1.92.81c.36.26.47-.37.58-.59a1.5,1.5,0,0,0,0-.94c-.09-.12.42-.08.56.06s.3-.14.42-.19.16-.57.22-.68-.24-.21-.25-.35-.58-.38-.77-.47-.24-.48-.14-.55-.07-.57-.16-.75-.69-.3-.89-.3-.4-.46-.52-.53a2.89,2.89,0,0,0-1.08-.09c-.19,0-.53-.55-.86-.37s-.65-.21-.8-.29-.9.73-.89,1.3A1.59,1.59,0,0,0,11,36.34c.12,0,0,.53-.16.68s-.45-.16-.33-.29-.32-.72-.48-1a1.88,1.88,0,0,0-.77-.44l-.45.51a1.23,1.23,0,0,1,.06.68c-.11.35-.41.4-.42.25s-.15-.11-.33-.14A34.63,34.63,0,0,0,.25,54.83a2.25,2.25,0,0,1,.4.58c.1.3.63.5.73.57s.14-.58.06-.75.13-.27.13-.15a4.31,4.31,0,0,0,.66.9c.17.21.34,1.53.5,1.82a6.35,6.35,0,0,0,2.19,1,2.64,2.64,0,0,1,1.21.81c.09.16.75.24.89.31s.48.51.62.6a.8.8,0,0,1,.24.42c0,.07.87.4,1.08.63a.46.46,0,0,0,.62.08c.07-.1.24.46.33.65A1.2,1.2,0,0,1,10,63c-.07.07-.19.94-.33,1.12a4.37,4.37,0,0,0-.4,1.69,2.08,2.08,0,0,0,.65.84.21.21,0,0,1,0,.37c-.14,0-.08,1.22.25,1.4a1.21,1.21,0,0,1,.55.81c-.05.09.57.73.82,1a6.11,6.11,0,0,1,.85,1.6,2.58,2.58,0,0,1,0,1c0,.13.12.42.14.54a9.57,9.57,0,0,0-.13,1.56c.09.41-.47,1.7-.46,2.33s.3,1.48.42,1.41.16.58,0,.66-.42.58-.31.61,0,.53,0,.73.2,1.53.23,1.86a9.86,9.86,0,0,0,.61,1.4c.1.28.2.8.24.87s.09.16.09.17a2.94,2.94,0,0,1,.5.22,3.13,3.13,0,0,0,1.1,0c.24-.06,0-.28-.09-.4s-.2-.71-.33-.77-.18-.81-.07-1,.56-.43.6-.57.07-.8-.05-.89,0-.88-.06-1.27.68-.75.73-1.06.88-.65,1.07-.8a2.05,2.05,0,0,0,.27-1.25c-.09-.19.3-.34.49-.34s.37-.13.44-.13.28-.4.39-.49.35-1,.56-1.19a1.62,1.62,0,0,0,.38-.89,2.7,2.7,0,0,1,.43-.82,4.62,4.62,0,0,1,1-.56A6.43,6.43,0,0,0,20.92,71a11,11,0,0,1,.3-1.21c0-.14.27-.27.31-.32A8,8,0,0,1,21.89,68.75Z"/><path class="cls-5" d="M14.74,48h0Z"/><path class="cls-5" d="M14.27,31.51a8.73,8.73,0,0,1,1.34-.64,9.63,9.63,0,0,1,.92-.67.86.86,0,0,0,.42-.59c0-.09.65-.51.91-.61s.4-.42.3-.44-1.52.76-2.85,1.52A35.43,35.43,0,0,0,11,33.51c.42,0,1.06-.1,1.34-.15a3.42,3.42,0,0,0,1.15-.3.67.67,0,0,0,0-.48h.21C13.83,32.59,14.1,31.72,14.27,31.51Z"/><path class="cls-5" d="M49.56,35.19l0,.05c-.07.12-.26-.08-.25-.25s-.52-.32-.59-.18-.44-.05-.59-.12-.81.6-1.05.84a2.86,2.86,0,0,1-1.62.35c-.22-.09-.43.51-.25.55s-.47,0-.83,0a5.62,5.62,0,0,0-1.66.64.27.27,0,0,1-.45-.19c0-.14-.4-.27-.52-.31s-.35.78-.56.94-.46-.64-.95-.78-1.25-.6-1.47-.66a2.91,2.91,0,0,1-.78-.64,2.09,2.09,0,0,0-1-.25,3.18,3.18,0,0,0-1,.52c-.18.15-.44.12-.53.17s-.81.78-1.1,1a9.17,9.17,0,0,0-.94,1.42.69.69,0,0,1-.49.28c-.1,0-.18.26-.18.36s-.84.53-.93.91a8.74,8.74,0,0,0,.09,1.57c0,.31.31.93.54.94s.11.53.06.67.14.31.13.43-.59.3-.77.37a1.33,1.33,0,0,0-.51.62c0,.13-.6.22-.78.41.05-.13.11-.31.16-.41a.66.66,0,0,0-.13-.63c-.09-.08-.13-1.09-.27-1.3a4.66,4.66,0,0,0-.59-.66c-.08-.07.06-.34.12-.45s-.48-.18-.62-.1S29,42.4,29,42.67a.88.88,0,0,0,.35.71c.08,0,.05.52-.12.54s-.36.73-.27.9-.13.49-.23.56.7,0,1.07,0,.66.16.62.19-.71.13-.83.29-.57.47-.66.59.15.39.34.38.42.66.57.79.09.48,0,.57-1-.07-1.32,0-.78.82-.81,1.09a6.62,6.62,0,0,0,.1,1.29c0,.21.76.35.91.46s.84,0,1,.07.61-.71.7-1.06.83-1,1-1.25.95-.22,1.14-.34.09.6.18,1,.85.35.74,0,.08-.54.1-.4.77.43.91.65.09.65-.07.65-.16.49,0,.55.4-.57.58-.66.34-.47.25-.5.15-.37.26-.26a4.36,4.36,0,0,0-.7-1.05c-.31-.32-.09-.18.49.31l.4.55c.07.1.18.41.25.53L36,50a3.77,3.77,0,0,1,.15.88.63.63,0,0,0,.5.42c.19,0,.34.09.3.09s.13.39.31.39.27-.48.09-.49-.17-.72-.19-1,.14-.55.2-.55,0,.63,0,.77a2,2,0,0,0,.17.64l.2.15.44.34c.63-.19,1.47,0,1.44.08s.47.16.5,0,.05,0,.05.15-.41.7-.48,1-1.52.09-2.15,0-1.55.16-1.62.35-1.05-.43-1.5-.62-.8-.87-.89-1,.08-.31,0-.44S32.5,51,32.2,51.06s-1.83.27-2.19.43a2,2,0,0,1-1.08,0c-.17,0-.58.47-.78.56a2.76,2.76,0,0,0-.59,1.58l-.27.54-.18.35a8.1,8.1,0,0,0-1.24,1.93,12.67,12.67,0,0,0-.29,2.73,8.62,8.62,0,0,0,.7,2.31,5.66,5.66,0,0,0,1.4,1.36,5.25,5.25,0,0,0,1.67.21,1,1,0,0,0,.84-.7l.49,0,.23,0c0,.27.74.49.91.59a1.66,1.66,0,0,0,.8,0c.14,0,.3,1.24.2,1.61a7.17,7.17,0,0,0,.35,2.05c.11.39.55,1.46.6,1.84a16.48,16.48,0,0,1-.32,2.1,8.24,8.24,0,0,0,.72,2.13,7.09,7.09,0,0,1,.29,1.56c0,.22.66,1.5.81,2s1.82.66,2.27.4A13.7,13.7,0,0,0,39,75.07a4,4,0,0,0,.48-1.27,1.24,1.24,0,0,1,.57-.52c.14,0,.58-1.92,1-2.33a6.79,6.79,0,0,0,.82-3.11,9.57,9.57,0,0,1,.35-2.4,3.2,3.2,0,0,1,.74-1,24.09,24.09,0,0,0,1.42-2.05,4.43,4.43,0,0,0,.54-1.88c-.06-.26-.72-.44-.85-.32a2.22,2.22,0,0,1-.95.24c-.2,0-.66-1.08-1-1.3s-.54-1.45-.7-1.68-.63-.82-.77-1-.17-.78-.2-1,.28.12.33.38a12.91,12.91,0,0,0,1,1.66c.23.36.83,1.48,1,1.83s1.49.18,1.93,0a2.85,2.85,0,0,0,1-.67c0-.12.71-.44.9-.6s.36-1,.49-1.08-.1-.9-.25-1.13a1.21,1.21,0,0,0-1-.32c-.15.09-.44-.51-.56-.74s-.63-.49-.68-.65.13-.39.22-.44a4.52,4.52,0,0,1,1.35,1,6.53,6.53,0,0,1,.65,1.08,1.4,1.4,0,0,0,1,0,.28.28,0,0,1,.44.08l.24-.05.85-.13a1.9,1.9,0,0,1,.51.9.79.79,0,0,0,.41.47c.16,0,.28.6.33.73s.53,1,.63,1.32a8,8,0,0,0,.61,1.21,2.94,2.94,0,0,1,.18.86.64.64,0,0,0,.51.42c.19,0,.58-1.23.67-1.68a1.25,1.25,0,0,1,.49-.83c.09,0,.16-.25.16-.35s.49-.08.53-.21.19-.93.36-1a6.55,6.55,0,0,1,1-.61.45.45,0,0,1,.29.07q0-.72,0-1.44A34.64,34.64,0,0,0,49.56,35.19Z"/><path class="cls-5" d="M53.92,61.94a1.51,1.51,0,0,0-.25-.89c-.14-.14-.35,0-.48.21S53.85,62.06,53.92,61.94Z"/><path class="cls-5" d="M42.67,73.38c0,.26.58.48.74.43a3,3,0,0,0,.66-1.09,5.6,5.6,0,0,0,.11-.86c0-.12.07-.39.14-.42a1.57,1.57,0,0,0,.22-.62,19.63,19.63,0,0,0-.34-2c0-.25-.29.13-.37.39s-.78.77-.94,1a2.12,2.12,0,0,0-.27,1.07,1.62,1.62,0,0,1-.14.76A7.65,7.65,0,0,0,42.67,73.38Z"/><path class="cls-5" d="M17,83.27h.49C17.57,82.75,17,82.84,17,83.27Z"/><path class="cls-5" d="M20.46,29.05a11.46,11.46,0,0,0-2.79.69c-.5.27-.89,1-.72,1s-.29.41-.56.5-.91.14-1.06.29.16.25.23.36.23-.09.4,0,.73.13.88.19-.48.18-.77.2-.23.6,0,.68.86.16.92.06.73.11,1,.15.52.78.61.95a2.5,2.5,0,0,1,.1.9c0,.17.53.47.63.36s.07.26-.16.25-.08.61.2.71.08.48-.07.6-.07.49-.23.63.57,1.4.56,2,.41,1.19.56,1.19.7.13.76.27.34-.1.44-.21a4.29,4.29,0,0,0,.48-.69,16.22,16.22,0,0,0,.59-1.73c0-.14.66-.05.8-.12a8,8,0,0,0,.66-.48c.11-.1,1-.47,1.23-.64s.64-.92.82-1.08-.1-.11-.33-.26a.25.25,0,0,1-.06-.41c.07-.08.77.12,1,.21s.71-.24.53-.37-.09-.13,0-.07.18-.44.09-.52.71-.69.56-1.24.23-1.13.44-1.14.16-.63-.1-.69,0-.11.08-.2a1.25,1.25,0,0,0,.16-.75c-.05-.11.4-.23.48-.36a2.2,2.2,0,0,1,.79-.42c.18,0,.28-.53.08-.51a1.54,1.54,0,0,1-.81-.17,1.92,1.92,0,0,0-1.09-.08c-.22.09-.07-.55.24-.62s0-.51-.28-.51a11.87,11.87,0,0,0-1.35-.08c-.19,0-.57-.14-.71-.16a13.39,13.39,0,0,1-1.59.27,11.18,11.18,0,0,0-1.85.1.8.8,0,0,0-.4.72C22,29,20.81,29,20.46,29.05Z"/><path class="cls-5" d="M33.89,32.67c.18,0,.42.44.6.44s.5-.71.57-1,.68-.06,1,0,.38-1,.07-1.13-.67-.08-.8-.2a1,1,0,0,0-.48-.25c-.13,0-.27-.65-.51-.73s-.76.19-.69.35-.41-.2-.74,0-.42.75-.27.83.26.54.27.62.64,0,.8-.11.14.47,0,.64S33.71,32.64,33.89,32.67Z"/><path class="cls-5" d="M37.89,29.91c.12-.11-1.36-.41-1.93-.43s-1,.06-1,.17a5.57,5.57,0,0,0,1.78.71A1.68,1.68,0,0,0,37.89,29.91Z"/><path class="cls-5" d="M27.76,43.65c-.12-.06-.2.43-.16.62s.47.16.67.13a.38.38,0,0,0,.34-.35c0-.16-.29-.88-.4-.88S27.9,43.7,27.76,43.65Z"/><path class="cls-5" d="M29.22,38c-.1-.18-.87-.16-1.06-.17a2.13,2.13,0,0,1-.87-.33c-.11-.12-.19.48-.37.56s.09.19.16.13,0,.3-.08.43.51.22.58.41a.49.49,0,0,0,.54.28c.23,0,.7-.28.86-.3S29.32,38.18,29.22,38Z"/><path class="cls-5" d="M43.77,33.53a14.7,14.7,0,0,0-.52,1.54c-.09.14.42.64.64.78a.81.81,0,0,0,.62,0,3.11,3.11,0,0,0-.23-1.19c-.12-.3.86-.85,1.12-1.11s1.35-.63,1.48-.9a.35.35,0,0,0-.19-.5c-.11,0-.24.14-.27.18s-1.27.34-1.66.53A4.48,4.48,0,0,0,43.77,33.53Z"/><path class="cls-5" d="M44.06,30.36c.41.41.64-.18,1.09-.13,0,0,0,0,0-.07l-.45-.43A.63.63,0,0,0,44.06,30.36Z"/><path class="cls-5" d="M10.41,39c-.12.12,0,.68.21.7s.6-.85.89-.68.47.24.42.15A9.39,9.39,0,0,0,11,38.7C10.88,38.64,10.53,38.93,10.41,39Z"/><path class="cls-5" d="M13.35,58.14c0,.1.5.08.58-.07s0-.28-.09-.28S13.35,58.05,13.35,58.14Z"/><path class="cls-5" d="M11.12,57.32c.24,0,.13.34.18.48s.64.25.75.35.41-.18.64-.15-.07-.8-.46-.77-.69-.35-.78-.4a5.46,5.46,0,0,1-.67-.42,5.57,5.57,0,0,0-1.44-.18,1.08,1.08,0,0,0-.75.44c-.06.12.53.2.69.11a1.66,1.66,0,0,1,1.1.28A.87.87,0,0,0,11.12,57.32Z"/><path class="cls-5" d="M10.07,58.14c0,.1.51,0,.63,0s.12-.08,0-.18S10.07,58.05,10.07,58.14Z"/><path class="cls-5" d="M10.43,55.54c-.13-.06-.24.15-.24.25a.17.17,0,0,0,.16.18C10.44,56,10.56,55.59,10.43,55.54Z"/><path class="cls-5" d="M11.49,55.62c0-.1-.26-.18-.32-.18s-.12.17-.11.37S11.53,55.71,11.49,55.62Z"/><path class="cls-5" d="M12.25,56.8c.21-.1.23-.35.11-.34s-.35-.35-.48-.4-.24.22-.24.34.08.2.17.18S12.05,56.89,12.25,56.8Z"/><rect class="cls-6" x="52.89" y="104.28" width="9.55" height="2" transform="translate(-48.95 50.13) rotate(-33.94)"/><rect class="cls-1" x="51.31" y="117" width="20.71" height="2" transform="translate(-67.83 87.04) rotate(-48.96)"/><rect class="cls-7" x="70.17" y="119.54" width="9.55" height="1" transform="translate(-65.82 134.63) rotate(-63.94)"/><rect class="cls-7" x="81.07" y="123.09" width="9.55" height="1" transform="translate(-52.02 183.89) rotate(-78.84)"/><path class="cls-6" d="M61.48,135.57,61,128.85l6.71-.46.46,6.72Zm.6-5.79.33,4.72,4.72-.32-.33-4.72Z"/><rect class="cls-5" x="32.33" width="70.72" height="100.28" rx="0.53" ry="0.53"/><path class="cls-7" d="M103.06,5.66V.53a.54.54,0,0,0-.54-.53H32.87a.54.54,0,0,0-.54.53V5.66Z"/><path class="cls-3" d="M32.33,87.91V99.74a.54.54,0,0,0,.54.54h69.65a.54.54,0,0,0,.54-.54V87.91Z"/><rect class="cls-8" x="32.33" y="24.11" width="70.72" height="26.74"/><rect class="cls-9" x="48.41" y="32.39" width="38.43" height="2.52"/><rect class="cls-9" x="44.31" y="37.37" width="46.63" height="0.63"/><rect class="cls-9" x="42.42" y="39.66" width="50.41" height="0.63"/><rect class="cls-9" x="48.6" y="41.94" width="38.05" height="0.63"/><rect class="cls-10" x="63.68" y="12.67" width="13.48" height="1.75"/><rect class="cls-10" x="58.23" y="11.31" width="4.11" height="4.47"/><rect class="cls-7" x="41.35" y="18.28" width="9.37" height="0.63"/><rect class="cls-7" x="52.18" y="18.28" width="9.36" height="0.63"/><rect class="cls-7" x="63.01" y="18.28" width="9.36" height="0.63"/><rect class="cls-7" x="73.84" y="18.28" width="9.36" height="0.63"/><rect class="cls-7" x="84.67" y="18.28" width="9.37" height="0.63"/><polygon class="cls-9" points="99.36 38.79 98.98 38.52 99.73 37.48 98.98 36.45 99.36 36.17 100.31 37.48 99.36 38.79"/><rect class="cls-9" x="97.43" y="37.25" width="2.59" height="0.47"/><polygon class="cls-9" points="36.02 38.79 35.07 37.48 36.02 36.17 36.4 36.45 35.65 37.48 36.4 38.52 36.02 38.79"/><rect class="cls-9" x="35.36" y="37.25" width="2.6" height="0.47"/><rect class="cls-11" x="38.22" y="54.47" width="17.23" height="17.23"/><path class="cls-12" d="M55.22,54.7V71.46H38.46V54.7Zm.47-.47H38v17.7h17.7V54.23Z"/><path class="cls-12" d="M38.55,71.6a.2.2,0,0,1-.16-.07.23.23,0,0,1,0-.33L55,54.64a.24.24,0,0,1,.34,0,.24.24,0,0,1,0,.33L38.72,71.53A.23.23,0,0,1,38.55,71.6Z"/><path class="cls-12" d="M55.12,71.6a.23.23,0,0,1-.17-.07L38.39,55a.23.23,0,0,1,0-.33.22.22,0,0,1,.33,0L55.29,71.2a.24.24,0,0,1-.17.4Z"/><rect class="cls-11" x="59.08" y="54.47" width="17.23" height="17.23"/><path class="cls-12" d="M76.08,54.7V71.46H59.31V54.7Zm.47-.47H58.84v17.7H76.55V54.23Z"/><path class="cls-12" d="M59.41,71.6a.2.2,0,0,1-.16-.07.22.22,0,0,1,0-.33L75.81,54.64a.23.23,0,0,1,.33,0,.24.24,0,0,1,0,.33L59.58,71.53A.23.23,0,0,1,59.41,71.6Z"/><path class="cls-12" d="M76,71.6a.21.21,0,0,1-.16-.07L59.25,55a.22.22,0,0,1,0-.33.23.23,0,0,1,.33,0L76.14,71.2a.24.24,0,0,1-.17.4Z"/><rect class="cls-11" x="79.93" y="54.47" width="17.23" height="17.23"/><path class="cls-12" d="M96.93,54.7V71.46H80.17V54.7Zm.47-.47H79.7v17.7H97.4V54.23Z"/><path class="cls-12" d="M80.27,71.6a.24.24,0,0,1-.17-.4L96.67,54.64a.23.23,0,0,1,.33,0A.24.24,0,0,1,97,55L80.44,71.53A.23.23,0,0,1,80.27,71.6Z"/><path class="cls-12" d="M96.83,71.6a.2.2,0,0,1-.16-.07L80.1,55a.24.24,0,0,1,0-.33.23.23,0,0,1,.34,0L97,71.2a.24.24,0,0,1-.17.4Z"/><rect class="cls-7" x="37.99" y="75.54" width="17.34" height="0.63"/><rect class="cls-7" x="37.99" y="77.18" width="15.77" height="0.63"/><rect class="cls-7" x="37.99" y="78.82" width="17.34" height="0.63"/><rect class="cls-7" x="37.99" y="80.46" width="13.83" height="0.63"/><rect class="cls-7" x="37.99" y="73.98" width="9.36" height="0.63"/><rect class="cls-7" x="37.99" y="93.55" width="17.34" height="0.63"/><rect class="cls-7" x="37.99" y="94.78" width="15.77" height="0.63"/><rect class="cls-7" x="37.99" y="91.99" width="9.36" height="0.63"/><rect class="cls-7" x="58.84" y="75.54" width="17.34" height="0.63"/><rect class="cls-7" x="58.84" y="77.18" width="15.78" height="0.63"/><rect class="cls-7" x="58.84" y="78.82" width="17.34" height="0.63"/><rect class="cls-7" x="58.84" y="80.46" width="13.84" height="0.63"/><rect class="cls-7" x="58.84" y="73.98" width="9.36" height="0.63"/><rect class="cls-7" x="79.7" y="75.54" width="17.34" height="0.63"/><rect class="cls-7" x="79.7" y="77.18" width="15.78" height="0.63"/><rect class="cls-7" x="79.7" y="78.82" width="17.34" height="0.63"/><rect class="cls-7" x="79.7" y="80.46" width="13.84" height="0.63"/><rect class="cls-7" x="79.7" y="73.98" width="9.37" height="0.63"/><path class="cls-7" d="M97.4,93.7a1.47,1.47,0,1,1-1.46-1.46A1.46,1.46,0,0,1,97.4,93.7Z"/><path class="cls-7" d="M93.62,93.7a1.47,1.47,0,1,1-1.47-1.46A1.47,1.47,0,0,1,93.62,93.7Z"/><path class="cls-7" d="M89.84,93.7a1.47,1.47,0,1,1-1.47-1.46A1.47,1.47,0,0,1,89.84,93.7Z"/><path class="cls-9" d="M41.47,2.78a.91.91,0,1,1-1.81,0,.91.91,0,0,1,1.81,0Z"/><path class="cls-9" d="M38.51,2.78a.91.91,0,1,1-1.81,0,.91.91,0,0,1,1.81,0Z"/><path class="cls-9" d="M35.55,2.78a.91.91,0,1,1-1.81,0,.91.91,0,0,1,1.81,0Z"/><path class="cls-10" d="M70.34,82.73A28.54,28.54,0,1,0,98.88,54.19,28.54,28.54,0,0,0,70.34,82.73Zm43.52,0a15,15,0,1,1-15-15A15,15,0,0,1,113.86,82.73Z"/><path class="cls-13" d="M80,82.73A18.91,18.91,0,1,0,98.88,63.82,18.91,18.91,0,0,0,80,82.73Zm33.89,0a15,15,0,1,1-15-15A15,15,0,0,1,113.86,82.73Z"/><polygon class="cls-10" points="75.34 76.13 75.34 89.32 65.35 87.18 65.35 78.26 75.34 76.13"/><polygon class="cls-10" points="75.25 88.29 81.85 99.71 72.13 102.86 67.67 95.13 75.25 88.29"/><polygon class="cls-10" points="81.25 98.86 92.69 105.46 85.84 113.04 78.11 108.58 81.25 98.86"/><polygon class="cls-10" points="91.74 105.02 104.94 105.02 102.8 115.01 93.88 115 91.74 105.02"/><polygon class="cls-10" points="103.91 105.11 115.34 98.51 118.47 108.23 110.75 112.68 103.91 105.11"/><polygon class="cls-10" points="114.48 99.1 121.08 87.67 128.66 94.52 124.2 102.24 114.48 99.1"/><polygon class="cls-10" points="120.64 88.61 120.64 75.42 130.62 77.55 130.62 86.47 120.64 88.61"/><polygon class="cls-10" points="120.73 76.45 114.13 65.02 123.85 61.88 128.3 69.6 120.73 76.45"/><polygon class="cls-10" points="114.72 65.87 103.29 59.27 110.14 51.69 117.86 56.15 114.72 65.87"/><polygon class="cls-10" points="104.23 59.71 91.03 59.72 93.17 49.73 102.09 49.73 104.23 59.71"/><polygon class="cls-10" points="92.07 59.63 80.64 66.23 77.5 56.51 85.22 52.05 92.07 59.63"/><polygon class="cls-10" points="81.49 65.63 74.89 77.07 67.31 70.22 71.77 62.49 81.49 65.63"/><rect class="cls-7" x="123.21" y="51.9" width="9.55" height="1" transform="translate(-5.58 88.27) rotate(-37.3)"/><rect class="cls-1" x="112.79" y="39.17" width="21.48" height="1" transform="translate(16.09 112.41) rotate(-51.9)"/><rect class="cls-7" x="105.09" y="38.18" width="9.55" height="1" transform="translate(31.81 125.13) rotate(-67.32)"/><path class="cls-6" d="M113.89,27.93a1,1,0,0,1,.71-1.2,1,1,0,0,1,1.19.7,1,1,0,0,1-1.9.5Z"/><rect class="cls-6" x="114.65" y="31.65" width="15.28" height="2" transform="translate(32.56 121.92) rotate(-59.8)"/><path class="cls-1" d="M136.19,45.54l-5.7-5.7,7.79-2.08Zm-3.76-5.18,3.24,3.25,1.19-4.44Z"/><path class="cls-6" d="M131.28,62.79a2.05,2.05,0,1,1,2.06-2A2.05,2.05,0,0,1,131.28,62.79Zm0-3.1a1.05,1.05,0,1,0,1.06,1.05A1.06,1.06,0,0,0,131.28,59.69Z"/></g></g></svg>